<?xml version="1.0" encoding="UTF-8" standalone="no"?><svg xmlns="http://www.w3.org/2000/svg" xmlns:xlink="http://www.w3.org/1999/xlink" contentScriptType="application/ecmascript" contentStyleType="text/css" height="1590px" preserveAspectRatio="none" style="width:1064px;height:1590px;background:#F0F8FF;" version="1.1" viewBox="0 0 1064 1590" width="1064px" zoomAndPan="magnify"><defs><filter height="300%" id="f74hgn5b03an3" width="300%" x="-1" y="-1"><feGaussianBlur result="blurOut" stdDeviation="2.0"/><feColorMatrix in="blurOut" result="blurOut2" type="matrix" values="0 0 0 0 0 0 0 0 0 0 0 0 0 0 0 0 0 0 .4 0"/><feOffset dx="4.0" dy="4.0" in="blurOut2" result="blurOut3"/><feBlend in="SourceGraphic" in2="blurOut3" mode="normal"/></filter></defs><g><!--MD5=[406b65fecc21e832f7a9b6ebadc6dce1]
cluster Client--><polygon fill="#F0F8FF" filter="url(#f74hgn5b03an3)" points="341,24,392,24,399,46.2969,803,46.2969,803,405,341,405,341,24" style="stroke: #000000; stroke-width: 1.5;"/><line style="stroke: #000000; stroke-width: 1.5;" x1="341" x2="399" y1="46.2969" y2="46.2969"/><text fill="#000000" font-family="sans-serif" font-size="14" font-weight="bold" lengthAdjust="spacingAndGlyphs" textLength="45" x="345" y="38.9951">Client</text><!--MD5=[979da56a7f83e2393dc758167ae295d0]
cluster Server--><polygon fill="#F0F8FF" filter="url(#f74hgn5b03an3)" points="22,454,81,454,88,476.2969,1042,476.2969,1042,1578,22,1578,22,454" style="stroke: #000000; stroke-width: 1.5;"/><line style="stroke: #000000; stroke-width: 1.5;" x1="22" x2="88" y1="476.2969" y2="476.2969"/><text fill="#000000" font-family="sans-serif" font-size="14" font-weight="bold" lengthAdjust="spacingAndGlyphs" textLength="53" x="26" y="468.9951">Server</text><!--MD5=[2cb47ba637a0d19583e6199456f6ad0b]
class Player--><rect fill="#98FB98" filter="url(#f74hgn5b03an3)" height="329.7031" id="Player" style="stroke: #006400; stroke-width: 1.5;" width="429" x="357.5" y="59"/><ellipse cx="548.75" cy="75" fill="#ADD1B2" rx="11" ry="11" style="stroke: #006400; stroke-width: 1.0;"/><path d="M551.7188,80.6406 Q551.1406,80.9375 550.5,81.0781 Q549.8594,81.2344 549.1563,81.2344 Q546.6563,81.2344 545.3281,79.5938 Q544.0156,77.9375 544.0156,74.8125 Q544.0156,71.6875 545.3281,70.0313 Q546.6563,68.375 549.1563,68.375 Q549.8594,68.375 550.5,68.5313 Q551.1563,68.6875 551.7188,68.9844 L551.7188,71.7031 Q551.0938,71.125 550.5,70.8594 Q549.9063,70.5781 549.2813,70.5781 Q547.9375,70.5781 547.25,71.6563 Q546.5625,72.7188 546.5625,74.8125 Q546.5625,76.9063 547.25,77.9844 Q547.9375,79.0469 549.2813,79.0469 Q549.9063,79.0469 550.5,78.7813 Q551.0938,78.5 551.7188,77.9219 L551.7188,80.6406 Z "/><text fill="#000000" font-family="sans-serif" font-size="12" lengthAdjust="spacingAndGlyphs" textLength="38" x="569.25" y="79.1543">Player</text><line style="stroke: #006400; stroke-width: 1.5;" x1="358.5" x2="785.5" y1="91" y2="91"/><ellipse cx="368.5" cy="102" fill="none" rx="3" ry="3" style="stroke: #038048; stroke-width: 1.0;"/><text fill="#000000" font-family="sans-serif" font-size="11" lengthAdjust="spacingAndGlyphs" textLength="121" x="377.5" y="105.2104">std::string username</text><ellipse cx="368.5" cy="114.8047" fill="none" rx="3" ry="3" style="stroke: #038048; stroke-width: 1.0;"/><text fill="#000000" font-family="sans-serif" font-size="11" lengthAdjust="spacingAndGlyphs" textLength="136" x="377.5" y="118.0151">std::string currentRoom</text><line style="stroke: #006400; stroke-width: 1.0;" x1="358.5" x2="785.5" y1="124.6094" y2="124.6094"/><ellipse cx="368.5" cy="135.6094" fill="#84BE84" rx="3" ry="3" style="stroke: #038048; stroke-width: 1.0;"/><text fill="#000000" font-family="sans-serif" font-size="11" lengthAdjust="spacingAndGlyphs" textLength="285" x="377.5" y="138.8198">void sendCommand(const std::string&amp; command)</text><ellipse cx="368.5" cy="148.4141" fill="#84BE84" rx="3" ry="3" style="stroke: #038048; stroke-width: 1.0;"/><text fill="#000000" font-family="sans-serif" font-size="11" lengthAdjust="spacingAndGlyphs" textLength="223" x="377.5" y="151.6245">void move(const std::string&amp; direction)</text><ellipse cx="368.5" cy="161.2188" fill="#84BE84" rx="3" ry="3" style="stroke: #038048; stroke-width: 1.0;"/><text fill="#000000" font-family="sans-serif" font-size="11" lengthAdjust="spacingAndGlyphs" textLength="211" x="377.5" y="164.4292">void interact(const std::string&amp; item)</text><ellipse cx="368.5" cy="174.0234" fill="#84BE84" rx="3" ry="3" style="stroke: #038048; stroke-width: 1.0;"/><text fill="#000000" font-family="sans-serif" font-size="11" lengthAdjust="spacingAndGlyphs" textLength="101" x="377.5" y="177.2339">void requestHint()</text><ellipse cx="368.5" cy="186.8281" fill="#84BE84" rx="3" ry="3" style="stroke: #038048; stroke-width: 1.0;"/><text fill="#000000" font-family="sans-serif" font-size="11" lengthAdjust="spacingAndGlyphs" textLength="116" x="377.5" y="190.0386">void requestStatus()</text><ellipse cx="368.5" cy="199.6328" fill="#84BE84" rx="3" ry="3" style="stroke: #038048; stroke-width: 1.0;"/><text fill="#000000" font-family="sans-serif" font-size="11" lengthAdjust="spacingAndGlyphs" textLength="252" x="377.5" y="202.8433">void solvePuzzle(const std::string&amp; solution)</text><ellipse cx="368.5" cy="212.4375" fill="#84BE84" rx="3" ry="3" style="stroke: #038048; stroke-width: 1.0;"/><text fill="#000000" font-family="sans-serif" font-size="11" lengthAdjust="spacingAndGlyphs" textLength="220" x="377.5" y="215.6479">void chat(const std::string&amp; message)</text><ellipse cx="368.5" cy="225.2422" fill="#84BE84" rx="3" ry="3" style="stroke: #038048; stroke-width: 1.0;"/><text fill="#000000" font-family="sans-serif" font-size="11" lengthAdjust="spacingAndGlyphs" textLength="225" x="377.5" y="228.4526">void examine(const std::string&amp; object)</text><ellipse cx="368.5" cy="238.0469" fill="#84BE84" rx="3" ry="3" style="stroke: #038048; stroke-width: 1.0;"/><text fill="#000000" font-family="sans-serif" font-size="11" lengthAdjust="spacingAndGlyphs" textLength="205" x="377.5" y="241.2573">void pickUp(const std::string&amp; item)</text><ellipse cx="368.5" cy="250.8516" fill="#84BE84" rx="3" ry="3" style="stroke: #038048; stroke-width: 1.0;"/><text fill="#000000" font-family="sans-serif" font-size="11" lengthAdjust="spacingAndGlyphs" textLength="219" x="377.5" y="254.062">void dropItem(const std::string&amp; item)</text><ellipse cx="368.5" cy="263.6563" fill="#84BE84" rx="3" ry="3" style="stroke: #038048; stroke-width: 1.0;"/><text fill="#000000" font-family="sans-serif" font-size="11" lengthAdjust="spacingAndGlyphs" textLength="112" x="377.5" y="266.8667">void viewInventory()</text><ellipse cx="368.5" cy="276.4609" fill="#84BE84" rx="3" ry="3" style="stroke: #038048; stroke-width: 1.0;"/><text fill="#000000" font-family="sans-serif" font-size="11" lengthAdjust="spacingAndGlyphs" textLength="403" x="377.5" y="279.6714">void combineItems(const std::string&amp; item1, const std::string&amp; item2)</text><ellipse cx="368.5" cy="289.2656" fill="#84BE84" rx="3" ry="3" style="stroke: #038048; stroke-width: 1.0;"/><text fill="#000000" font-family="sans-serif" font-size="11" lengthAdjust="spacingAndGlyphs" textLength="98" x="377.5" y="292.4761">void lookAround()</text><ellipse cx="368.5" cy="302.0703" fill="#84BE84" rx="3" ry="3" style="stroke: #038048; stroke-width: 1.0;"/><text fill="#000000" font-family="sans-serif" font-size="11" lengthAdjust="spacingAndGlyphs" textLength="83" x="377.5" y="305.2808">void useDoor()</text><ellipse cx="368.5" cy="314.875" fill="#84BE84" rx="3" ry="3" style="stroke: #038048; stroke-width: 1.0;"/><text fill="#000000" font-family="sans-serif" font-size="11" lengthAdjust="spacingAndGlyphs" textLength="231" x="377.5" y="318.0854">void unlockDoor(const std::string&amp; item)</text><ellipse cx="368.5" cy="327.6797" fill="#84BE84" rx="3" ry="3" style="stroke: #038048; stroke-width: 1.0;"/><text fill="#000000" font-family="sans-serif" font-size="11" lengthAdjust="spacingAndGlyphs" textLength="317" x="377.5" y="330.8901">void activateMechanism(const std::string&amp; mechanism)</text><ellipse cx="368.5" cy="340.4844" fill="#84BE84" rx="3" ry="3" style="stroke: #038048; stroke-width: 1.0;"/><text fill="#000000" font-family="sans-serif" font-size="11" lengthAdjust="spacingAndGlyphs" textLength="239" x="377.5" y="343.6948">void readObject(const std::string&amp; object)</text><ellipse cx="368.5" cy="353.2891" fill="#84BE84" rx="3" ry="3" style="stroke: #038048; stroke-width: 1.0;"/><text fill="#000000" font-family="sans-serif" font-size="11" lengthAdjust="spacingAndGlyphs" textLength="234" x="377.5" y="356.4995">void inspectItem(const std::string&amp; item)</text><ellipse cx="368.5" cy="366.0938" fill="#84BE84" rx="3" ry="3" style="stroke: #038048; stroke-width: 1.0;"/><text fill="#000000" font-family="sans-serif" font-size="11" lengthAdjust="spacingAndGlyphs" textLength="98" x="377.5" y="369.3042">void askForHelp()</text><ellipse cx="368.5" cy="378.8984" fill="#84BE84" rx="3" ry="3" style="stroke: #038048; stroke-width: 1.0;"/><text fill="#000000" font-family="sans-serif" font-size="11" lengthAdjust="spacingAndGlyphs" textLength="106" x="377.5" y="382.1089">void searchRoom()</text><!--MD5=[9b062260d680ccf45bd4bb57fda64d79]
class GameServer--><rect fill="#98FB98" filter="url(#f74hgn5b03an3)" height="86.4141" id="GameServer" style="stroke: #006400; stroke-width: 1.5;" width="346" x="399" y="489"/><ellipse cx="529.75" cy="505" fill="#ADD1B2" rx="11" ry="11" style="stroke: #006400; stroke-width: 1.0;"/><path d="M532.7188,510.6406 Q532.1406,510.9375 531.5,511.0781 Q530.8594,511.2344 530.1563,511.2344 Q527.6563,511.2344 526.3281,509.5938 Q525.0156,507.9375 525.0156,504.8125 Q525.0156,501.6875 526.3281,500.0313 Q527.6563,498.375 530.1563,498.375 Q530.8594,498.375 531.5,498.5313 Q532.1563,498.6875 532.7188,498.9844 L532.7188,501.7031 Q532.0938,501.125 531.5,500.8594 Q530.9063,500.5781 530.2813,500.5781 Q528.9375,500.5781 528.25,501.6563 Q527.5625,502.7188 527.5625,504.8125 Q527.5625,506.9063 528.25,507.9844 Q528.9375,509.0469 530.2813,509.0469 Q530.9063,509.0469 531.5,508.7813 Q532.0938,508.5 532.7188,507.9219 L532.7188,510.6406 Z "/><text fill="#000000" font-family="sans-serif" font-size="12" lengthAdjust="spacingAndGlyphs" textLength="76" x="550.25" y="509.1543">GameServer</text><line style="stroke: #006400; stroke-width: 1.5;" x1="400" x2="744" y1="521" y2="521"/><ellipse cx="410" cy="532" fill="none" rx="3" ry="3" style="stroke: #038048; stroke-width: 1.0;"/><text fill="#000000" font-family="sans-serif" font-size="11" lengthAdjust="spacingAndGlyphs" textLength="148" x="419" y="535.2104">GameManager gameLogic</text><ellipse cx="410" cy="544.8047" fill="none" rx="3" ry="3" style="stroke: #038048; stroke-width: 1.0;"/><text fill="#000000" font-family="sans-serif" font-size="11" lengthAdjust="spacingAndGlyphs" textLength="129" x="419" y="548.0151">ThreadPool threadPool</text><line style="stroke: #006400; stroke-width: 1.0;" x1="400" x2="744" y1="554.6094" y2="554.6094"/><ellipse cx="410" cy="565.6094" fill="#84BE84" rx="3" ry="3" style="stroke: #038048; stroke-width: 1.0;"/><text fill="#000000" font-family="sans-serif" font-size="11" lengthAdjust="spacingAndGlyphs" textLength="320" x="419" y="568.8198">void handlePlayerConnect(const std::string&amp; username)</text><!--MD5=[b62a1d5f5727b43278c50ba573133213]
class ThreadPool--><rect fill="#98FB98" filter="url(#f74hgn5b03an3)" height="99.2188" id="ThreadPool" style="stroke: #006400; stroke-width: 1.5;" width="663" x="39.5" y="652"/><ellipse cx="331.25" cy="668" fill="#ADD1B2" rx="11" ry="11" style="stroke: #006400; stroke-width: 1.0;"/><path d="M334.2188,673.6406 Q333.6406,673.9375 333,674.0781 Q332.3594,674.2344 331.6563,674.2344 Q329.1563,674.2344 327.8281,672.5938 Q326.5156,670.9375 326.5156,667.8125 Q326.5156,664.6875 327.8281,663.0313 Q329.1563,661.375 331.6563,661.375 Q332.3594,661.375 333,661.5313 Q333.6563,661.6875 334.2188,661.9844 L334.2188,664.7031 Q333.5938,664.125 333,663.8594 Q332.4063,663.5781 331.7813,663.5781 Q330.4375,663.5781 329.75,664.6563 Q329.0625,665.7188 329.0625,667.8125 Q329.0625,669.9063 329.75,670.9844 Q330.4375,672.0469 331.7813,672.0469 Q332.4063,672.0469 333,671.7813 Q333.5938,671.5 334.2188,670.9219 L334.2188,673.6406 Z "/><text fill="#000000" font-family="sans-serif" font-size="12" lengthAdjust="spacingAndGlyphs" textLength="71" x="351.75" y="672.1543">ThreadPool</text><line style="stroke: #006400; stroke-width: 1.5;" x1="40.5" x2="701.5" y1="684" y2="684"/><ellipse cx="50.5" cy="695" fill="none" rx="3" ry="3" style="stroke: #038048; stroke-width: 1.0;"/><text fill="#000000" font-family="sans-serif" font-size="11" lengthAdjust="spacingAndGlyphs" textLength="89" x="59.5" y="698.2104">int maxThreads</text><ellipse cx="50.5" cy="707.8047" fill="none" rx="3" ry="3" style="stroke: #038048; stroke-width: 1.0;"/><text fill="#000000" font-family="sans-serif" font-size="11" lengthAdjust="spacingAndGlyphs" textLength="178" x="59.5" y="711.0151">GameManager&amp; gameManager</text><line style="stroke: #006400; stroke-width: 1.0;" x1="40.5" x2="701.5" y1="717.6094" y2="717.6094"/><ellipse cx="50.5" cy="728.6094" fill="#84BE84" rx="3" ry="3" style="stroke: #038048; stroke-width: 1.0;"/><text fill="#000000" font-family="sans-serif" font-size="11" lengthAdjust="spacingAndGlyphs" textLength="227" x="59.5" y="731.8198">void execute(std::function&lt;void()&gt; task)</text><ellipse cx="50.5" cy="741.4141" fill="#84BE84" rx="3" ry="3" style="stroke: #038048; stroke-width: 1.0;"/><text fill="#000000" font-family="sans-serif" font-size="11" lengthAdjust="spacingAndGlyphs" textLength="637" x="59.5" y="744.6245">void processClientRequest(const std::string&amp; username, const std::string&amp; topic, const std::string&amp; message)</text><!--MD5=[ebecb9917226677787fac7e9a2731304]
class GameManager--><rect fill="#98FB98" filter="url(#f74hgn5b03an3)" height="316.8984" id="GameManager" style="stroke: #006400; stroke-width: 1.5;" width="655" x="159.5" y="828"/><ellipse cx="437.25" cy="844" fill="#ADD1B2" rx="11" ry="11" style="stroke: #006400; stroke-width: 1.0;"/><path d="M440.2188,849.6406 Q439.6406,849.9375 439,850.0781 Q438.3594,850.2344 437.6563,850.2344 Q435.1563,850.2344 433.8281,848.5938 Q432.5156,846.9375 432.5156,843.8125 Q432.5156,840.6875 433.8281,839.0313 Q435.1563,837.375 437.6563,837.375 Q438.3594,837.375 439,837.5313 Q439.6563,837.6875 440.2188,837.9844 L440.2188,840.7031 Q439.5938,840.125 439,839.8594 Q438.4063,839.5781 437.7813,839.5781 Q436.4375,839.5781 435.75,840.6563 Q435.0625,841.7188 435.0625,843.8125 Q435.0625,845.9063 435.75,846.9844 Q436.4375,848.0469 437.7813,848.0469 Q438.4063,848.0469 439,847.7813 Q439.5938,847.5 440.2188,846.9219 L440.2188,849.6406 Z "/><text fill="#000000" font-family="sans-serif" font-size="12" lengthAdjust="spacingAndGlyphs" textLength="91" x="457.75" y="848.1543">GameManager</text><line style="stroke: #006400; stroke-width: 1.5;" x1="160.5" x2="813.5" y1="860" y2="860"/><ellipse cx="170.5" cy="871" fill="none" rx="3" ry="3" style="stroke: #038048; stroke-width: 1.0;"/><text fill="#000000" font-family="sans-serif" font-size="11" lengthAdjust="spacingAndGlyphs" textLength="152" x="179.5" y="874.2104">std::vector&lt;Room&gt; rooms</text><ellipse cx="170.5" cy="883.8047" fill="none" rx="3" ry="3" style="stroke: #038048; stroke-width: 1.0;"/><text fill="#000000" font-family="sans-serif" font-size="11" lengthAdjust="spacingAndGlyphs" textLength="328" x="179.5" y="887.0151">std::unordered_map&lt;std::string, PlayerSession&gt; players</text><line style="stroke: #006400; stroke-width: 1.0;" x1="160.5" x2="813.5" y1="893.6094" y2="893.6094"/><ellipse cx="170.5" cy="904.6094" fill="#84BE84" rx="3" ry="3" style="stroke: #038048; stroke-width: 1.0;"/><text fill="#000000" font-family="sans-serif" font-size="11" lengthAdjust="spacingAndGlyphs" textLength="114" x="179.5" y="907.8198">void initializeGame()</text><ellipse cx="170.5" cy="917.4141" fill="#84BE84" rx="3" ry="3" style="stroke: #038048; stroke-width: 1.0;"/><text fill="#000000" font-family="sans-serif" font-size="11" lengthAdjust="spacingAndGlyphs" textLength="406" x="179.5" y="920.6245">void movePlayer(PlayerSession&amp; session, const std::string&amp; direction)</text><ellipse cx="170.5" cy="930.2188" fill="#84BE84" rx="3" ry="3" style="stroke: #038048; stroke-width: 1.0;"/><text fill="#000000" font-family="sans-serif" font-size="11" lengthAdjust="spacingAndGlyphs" textLength="403" x="179.5" y="933.4292">bool checkPuzzle(PlayerSession&amp; session, const std::string&amp; solution)</text><ellipse cx="170.5" cy="943.0234" fill="#84BE84" rx="3" ry="3" style="stroke: #038048; stroke-width: 1.0;"/><text fill="#000000" font-family="sans-serif" font-size="11" lengthAdjust="spacingAndGlyphs" textLength="251" x="179.5" y="946.2339">std::string getHint(PlayerSession&amp; session)</text><ellipse cx="170.5" cy="955.8281" fill="#84BE84" rx="3" ry="3" style="stroke: #038048; stroke-width: 1.0;"/><text fill="#000000" font-family="sans-serif" font-size="11" lengthAdjust="spacingAndGlyphs" textLength="266" x="179.5" y="959.0386">std::string getStatus(PlayerSession&amp; session)</text><ellipse cx="170.5" cy="968.6328" fill="#84BE84" rx="3" ry="3" style="stroke: #038048; stroke-width: 1.0;"/><text fill="#000000" font-family="sans-serif" font-size="11" lengthAdjust="spacingAndGlyphs" textLength="629" x="179.5" y="971.8433">void handleCollaboration(const std::string&amp; room, const std::string&amp; username, const std::string&amp; message)</text><ellipse cx="170.5" cy="981.4375" fill="#84BE84" rx="3" ry="3" style="stroke: #038048; stroke-width: 1.0;"/><text fill="#000000" font-family="sans-serif" font-size="11" lengthAdjust="spacingAndGlyphs" textLength="609" x="179.5" y="984.6479">std::string handleInteraction(PlayerSession&amp; session, const std::string&amp; action, const std::string&amp; target)</text><ellipse cx="170.5" cy="994.2422" fill="#84BE84" rx="3" ry="3" style="stroke: #038048; stroke-width: 1.0;"/><text fill="#000000" font-family="sans-serif" font-size="11" lengthAdjust="spacingAndGlyphs" textLength="447" x="179.5" y="997.4526">std::string handleExamine(PlayerSession&amp; session, const std::string&amp; object)</text><ellipse cx="170.5" cy="1007.0469" fill="#84BE84" rx="3" ry="3" style="stroke: #038048; stroke-width: 1.0;"/><text fill="#000000" font-family="sans-serif" font-size="11" lengthAdjust="spacingAndGlyphs" textLength="426" x="179.5" y="1010.2573">std::string handlePickup(PlayerSession&amp; session, const std::string&amp; item)</text><ellipse cx="170.5" cy="1019.8516" fill="#84BE84" rx="3" ry="3" style="stroke: #038048; stroke-width: 1.0;"/><text fill="#000000" font-family="sans-serif" font-size="11" lengthAdjust="spacingAndGlyphs" textLength="417" x="179.5" y="1023.062">std::string handleDrop(PlayerSession&amp; session, const std::string&amp; item)</text><ellipse cx="170.5" cy="1032.6563" fill="#84BE84" rx="3" ry="3" style="stroke: #038048; stroke-width: 1.0;"/><text fill="#000000" font-family="sans-serif" font-size="11" lengthAdjust="spacingAndGlyphs" textLength="346" x="179.5" y="1035.8667">std::vector&lt;Item&gt; handleInventory(PlayerSession&amp; session)</text><ellipse cx="170.5" cy="1045.4609" fill="#84BE84" rx="3" ry="3" style="stroke: #038048; stroke-width: 1.0;"/><text fill="#000000" font-family="sans-serif" font-size="11" lengthAdjust="spacingAndGlyphs" textLength="595" x="179.5" y="1048.6714">std::string handleCombine(PlayerSession&amp; session, const std::string&amp; item1, const std::string&amp; item2)</text><ellipse cx="170.5" cy="1058.2656" fill="#84BE84" rx="3" ry="3" style="stroke: #038048; stroke-width: 1.0;"/><text fill="#000000" font-family="sans-serif" font-size="11" lengthAdjust="spacingAndGlyphs" textLength="315" x="179.5" y="1061.4761">std::string handleLookAround(PlayerSession&amp; session)</text><ellipse cx="170.5" cy="1071.0703" fill="#84BE84" rx="3" ry="3" style="stroke: #038048; stroke-width: 1.0;"/><text fill="#000000" font-family="sans-serif" font-size="11" lengthAdjust="spacingAndGlyphs" textLength="298" x="179.5" y="1074.2808">std::string handleUseDoor(PlayerSession&amp; session)</text><ellipse cx="170.5" cy="1083.875" fill="#84BE84" rx="3" ry="3" style="stroke: #038048; stroke-width: 1.0;"/><text fill="#000000" font-family="sans-serif" font-size="11" lengthAdjust="spacingAndGlyphs" textLength="454" x="179.5" y="1087.0854">std::string handleUnlockDoor(PlayerSession&amp; session, const std::string&amp; item)</text><ellipse cx="170.5" cy="1096.6797" fill="#84BE84" rx="3" ry="3" style="stroke: #038048; stroke-width: 1.0;"/><text fill="#000000" font-family="sans-serif" font-size="11" lengthAdjust="spacingAndGlyphs" textLength="475" x="179.5" y="1099.8901">std::string handleActivate(PlayerSession&amp; session, const std::string&amp; mechanism)</text><ellipse cx="170.5" cy="1109.4844" fill="#84BE84" rx="3" ry="3" style="stroke: #038048; stroke-width: 1.0;"/><text fill="#000000" font-family="sans-serif" font-size="11" lengthAdjust="spacingAndGlyphs" textLength="427" x="179.5" y="1112.6948">std::string handleRead(PlayerSession&amp; session, const std::string&amp; object)</text><ellipse cx="170.5" cy="1122.2891" fill="#84BE84" rx="3" ry="3" style="stroke: #038048; stroke-width: 1.0;"/><text fill="#000000" font-family="sans-serif" font-size="11" lengthAdjust="spacingAndGlyphs" textLength="431" x="179.5" y="1125.4995">std::string handleInspect(PlayerSession&amp; session, const std::string&amp; item)</text><ellipse cx="170.5" cy="1135.0938" fill="#84BE84" rx="3" ry="3" style="stroke: #038048; stroke-width: 1.0;"/><text fill="#000000" font-family="sans-serif" font-size="11" lengthAdjust="spacingAndGlyphs" textLength="289" x="179.5" y="1138.3042">std::string handleSearch(PlayerSession&amp; session)</text><!--MD5=[cbc00b7300829a47947ebd24d4d70cd8]
class PlayerSession--><rect fill="#98FB98" filter="url(#f74hgn5b03an3)" height="124.8281" id="PlayerSession" style="stroke: #006400; stroke-width: 1.5;" width="467" x="38.5" y="1228.5"/><ellipse cx="224.25" cy="1244.5" fill="#ADD1B2" rx="11" ry="11" style="stroke: #006400; stroke-width: 1.0;"/><path d="M227.2188,1250.1406 Q226.6406,1250.4375 226,1250.5781 Q225.3594,1250.7344 224.6563,1250.7344 Q222.1563,1250.7344 220.8281,1249.0938 Q219.5156,1247.4375 219.5156,1244.3125 Q219.5156,1241.1875 220.8281,1239.5313 Q222.1563,1237.875 224.6563,1237.875 Q225.3594,1237.875 226,1238.0313 Q226.6563,1238.1875 227.2188,1238.4844 L227.2188,1241.2031 Q226.5938,1240.625 226,1240.3594 Q225.4063,1240.0781 224.7813,1240.0781 Q223.4375,1240.0781 222.75,1241.1563 Q222.0625,1242.2188 222.0625,1244.3125 Q222.0625,1246.4063 222.75,1247.4844 Q223.4375,1248.5469 224.7813,1248.5469 Q225.4063,1248.5469 226,1248.2813 Q226.5938,1248 227.2188,1247.4219 L227.2188,1250.1406 Z "/><text fill="#000000" font-family="sans-serif" font-size="12" lengthAdjust="spacingAndGlyphs" textLength="87" x="244.75" y="1248.6543">PlayerSession</text><line style="stroke: #006400; stroke-width: 1.5;" x1="39.5" x2="504.5" y1="1260.5" y2="1260.5"/><ellipse cx="49.5" cy="1271.5" fill="none" rx="3" ry="3" style="stroke: #038048; stroke-width: 1.0;"/><text fill="#000000" font-family="sans-serif" font-size="11" lengthAdjust="spacingAndGlyphs" textLength="121" x="58.5" y="1274.7104">std::string username</text><ellipse cx="49.5" cy="1284.3047" fill="none" rx="3" ry="3" style="stroke: #038048; stroke-width: 1.0;"/><text fill="#000000" font-family="sans-serif" font-size="11" lengthAdjust="spacingAndGlyphs" textLength="308" x="58.5" y="1287.5151">std::chrono::system_clock::time_point lastActivityTime</text><line style="stroke: #006400; stroke-width: 1.0;" x1="39.5" x2="504.5" y1="1294.1094" y2="1294.1094"/><ellipse cx="49.5" cy="1305.1094" fill="#84BE84" rx="3" ry="3" style="stroke: #038048; stroke-width: 1.0;"/><text fill="#000000" font-family="sans-serif" font-size="11" lengthAdjust="spacingAndGlyphs" textLength="339" x="58.5" y="1308.3198">std::string processCommand(const std::string&amp; command)</text><ellipse cx="49.5" cy="1317.9141" fill="#84BE84" rx="3" ry="3" style="stroke: #038048; stroke-width: 1.0;"/><text fill="#000000" font-family="sans-serif" font-size="11" lengthAdjust="spacingAndGlyphs" textLength="111" x="58.5" y="1321.1245">std::string getHint()</text><ellipse cx="49.5" cy="1330.7188" fill="#84BE84" rx="3" ry="3" style="stroke: #038048; stroke-width: 1.0;"/><text fill="#000000" font-family="sans-serif" font-size="11" lengthAdjust="spacingAndGlyphs" textLength="126" x="58.5" y="1333.9292">std::string getStatus()</text><ellipse cx="49.5" cy="1343.5234" fill="#84BE84" rx="3" ry="3" style="stroke: #038048; stroke-width: 1.0;"/><text fill="#000000" font-family="sans-serif" font-size="11" lengthAdjust="spacingAndGlyphs" textLength="441" x="58.5" y="1346.7339">std::string executeAction(const std::string&amp; action, const std::string&amp; target)</text><!--MD5=[d218c48b946d362ff1ecd879cabebcad]
class Room--><rect fill="#98FB98" filter="url(#f74hgn5b03an3)" height="137.6328" id="Room" style="stroke: #006400; stroke-width: 1.5;" width="485" x="540.5" y="1222"/><ellipse cx="761.25" cy="1238" fill="#ADD1B2" rx="11" ry="11" style="stroke: #006400; stroke-width: 1.0;"/><path d="M764.2188,1243.6406 Q763.6406,1243.9375 763,1244.0781 Q762.3594,1244.2344 761.6563,1244.2344 Q759.1563,1244.2344 757.8281,1242.5938 Q756.5156,1240.9375 756.5156,1237.8125 Q756.5156,1234.6875 757.8281,1233.0313 Q759.1563,1231.375 761.6563,1231.375 Q762.3594,1231.375 763,1231.5313 Q763.6563,1231.6875 764.2188,1231.9844 L764.2188,1234.7031 Q763.5938,1234.125 763,1233.8594 Q762.4063,1233.5781 761.7813,1233.5781 Q760.4375,1233.5781 759.75,1234.6563 Q759.0625,1235.7188 759.0625,1237.8125 Q759.0625,1239.9063 759.75,1240.9844 Q760.4375,1242.0469 761.7813,1242.0469 Q762.4063,1242.0469 763,1241.7813 Q763.5938,1241.5 764.2188,1240.9219 L764.2188,1243.6406 Z "/><text fill="#000000" font-family="sans-serif" font-size="12" lengthAdjust="spacingAndGlyphs" textLength="35" x="781.75" y="1242.1543">Room</text><line style="stroke: #006400; stroke-width: 1.5;" x1="541.5" x2="1024.5" y1="1254" y2="1254"/><ellipse cx="551.5" cy="1265" fill="none" rx="3" ry="3" style="stroke: #038048; stroke-width: 1.0;"/><text fill="#000000" font-family="sans-serif" font-size="11" lengthAdjust="spacingAndGlyphs" textLength="95" x="560.5" y="1268.2104">std::string name</text><ellipse cx="551.5" cy="1277.8047" fill="none" rx="3" ry="3" style="stroke: #038048; stroke-width: 1.0;"/><text fill="#000000" font-family="sans-serif" font-size="11" lengthAdjust="spacingAndGlyphs" textLength="126" x="560.5" y="1281.0151">std::string description</text><ellipse cx="551.5" cy="1290.6094" fill="none" rx="3" ry="3" style="stroke: #038048; stroke-width: 1.0;"/><text fill="#000000" font-family="sans-serif" font-size="11" lengthAdjust="spacingAndGlyphs" textLength="158" x="560.5" y="1293.8198">std::vector&lt;Puzzle&gt; puzzles</text><ellipse cx="551.5" cy="1303.4141" fill="none" rx="3" ry="3" style="stroke: #038048; stroke-width: 1.0;"/><text fill="#000000" font-family="sans-serif" font-size="11" lengthAdjust="spacingAndGlyphs" textLength="140" x="560.5" y="1306.6245">std::vector&lt;Item&gt; items</text><ellipse cx="551.5" cy="1316.2188" fill="none" rx="3" ry="3" style="stroke: #038048; stroke-width: 1.0;"/><text fill="#000000" font-family="sans-serif" font-size="11" lengthAdjust="spacingAndGlyphs" textLength="242" x="560.5" y="1319.4292">std::vector&lt;std::string&gt; connectedPlayers</text><line style="stroke: #006400; stroke-width: 1.0;" x1="541.5" x2="1024.5" y1="1326.0234" y2="1326.0234"/><ellipse cx="551.5" cy="1337.0234" fill="#84BE84" rx="3" ry="3" style="stroke: #038048; stroke-width: 1.0;"/><text fill="#000000" font-family="sans-serif" font-size="11" lengthAdjust="spacingAndGlyphs" textLength="327" x="560.5" y="1340.2339">std::string describeRoom(const PlayerSession&amp; session)</text><ellipse cx="551.5" cy="1349.8281" fill="#84BE84" rx="3" ry="3" style="stroke: #038048; stroke-width: 1.0;"/><text fill="#000000" font-family="sans-serif" font-size="11" lengthAdjust="spacingAndGlyphs" textLength="459" x="560.5" y="1353.0386">std::string handleInteraction(PlayerSession&amp; session, const std::string&amp; action)</text><!--MD5=[bdb67d807b54310fa85dc9d3c5aad932]
class Puzzle--><rect fill="#98FB98" filter="url(#f74hgn5b03an3)" height="124.8281" id="Puzzle" style="stroke: #006400; stroke-width: 1.5;" width="288" x="507" y="1437"/><ellipse cx="628.25" cy="1453" fill="#ADD1B2" rx="11" ry="11" style="stroke: #006400; stroke-width: 1.0;"/><path d="M631.2188,1458.6406 Q630.6406,1458.9375 630,1459.0781 Q629.3594,1459.2344 628.6563,1459.2344 Q626.1563,1459.2344 624.8281,1457.5938 Q623.5156,1455.9375 623.5156,1452.8125 Q623.5156,1449.6875 624.8281,1448.0313 Q626.1563,1446.375 628.6563,1446.375 Q629.3594,1446.375 630,1446.5313 Q630.6563,1446.6875 631.2188,1446.9844 L631.2188,1449.7031 Q630.5938,1449.125 630,1448.8594 Q629.4063,1448.5781 628.7813,1448.5781 Q627.4375,1448.5781 626.75,1449.6563 Q626.0625,1450.7188 626.0625,1452.8125 Q626.0625,1454.9063 626.75,1455.9844 Q627.4375,1457.0469 628.7813,1457.0469 Q629.4063,1457.0469 630,1456.7813 Q630.5938,1456.5 631.2188,1455.9219 L631.2188,1458.6406 Z "/><text fill="#000000" font-family="sans-serif" font-size="12" lengthAdjust="spacingAndGlyphs" textLength="37" x="648.75" y="1457.1543">Puzzle</text><line style="stroke: #006400; stroke-width: 1.5;" x1="508" x2="794" y1="1469" y2="1469"/><ellipse cx="518" cy="1480" fill="none" rx="3" ry="3" style="stroke: #038048; stroke-width: 1.0;"/><text fill="#000000" font-family="sans-serif" font-size="11" lengthAdjust="spacingAndGlyphs" textLength="95" x="527" y="1483.2104">std::string name</text><ellipse cx="518" cy="1492.8047" fill="none" rx="3" ry="3" style="stroke: #038048; stroke-width: 1.0;"/><text fill="#000000" font-family="sans-serif" font-size="11" lengthAdjust="spacingAndGlyphs" textLength="126" x="527" y="1496.0151">std::string description</text><ellipse cx="518" cy="1505.6094" fill="none" rx="3" ry="3" style="stroke: #038048; stroke-width: 1.0;"/><text fill="#000000" font-family="sans-serif" font-size="11" lengthAdjust="spacingAndGlyphs" textLength="108" x="527" y="1508.8198">std::string solution</text><ellipse cx="518" cy="1518.4141" fill="none" rx="3" ry="3" style="stroke: #038048; stroke-width: 1.0;"/><text fill="#000000" font-family="sans-serif" font-size="11" lengthAdjust="spacingAndGlyphs" textLength="76" x="527" y="1521.6245">bool isSolved</text><line style="stroke: #006400; stroke-width: 1.0;" x1="508" x2="794" y1="1528.2188" y2="1528.2188"/><ellipse cx="518" cy="1539.2188" fill="#84BE84" rx="3" ry="3" style="stroke: #038048; stroke-width: 1.0;"/><text fill="#000000" font-family="sans-serif" font-size="11" lengthAdjust="spacingAndGlyphs" textLength="262" x="527" y="1542.4292">bool attemptSolution(const std::string&amp; input)</text><ellipse cx="518" cy="1552.0234" fill="#84BE84" rx="3" ry="3" style="stroke: #038048; stroke-width: 1.0;"/><text fill="#000000" font-family="sans-serif" font-size="11" lengthAdjust="spacingAndGlyphs" textLength="114" x="527" y="1555.2339">std::string getClue()</text><!--MD5=[44a1b4afaef76c16e6c9ec4990ad0c8d]
class Item--><rect fill="#98FB98" filter="url(#f74hgn5b03an3)" height="99.2188" id="Item" style="stroke: #006400; stroke-width: 1.5;" width="152" x="830" y="1450"/><ellipse cx="888.25" cy="1466" fill="#ADD1B2" rx="11" ry="11" style="stroke: #006400; stroke-width: 1.0;"/><path d="M891.2188,1471.6406 Q890.6406,1471.9375 890,1472.0781 Q889.3594,1472.2344 888.6563,1472.2344 Q886.1563,1472.2344 884.8281,1470.5938 Q883.5156,1468.9375 883.5156,1465.8125 Q883.5156,1462.6875 884.8281,1461.0313 Q886.1563,1459.375 888.6563,1459.375 Q889.3594,1459.375 890,1459.5313 Q890.6563,1459.6875 891.2188,1459.9844 L891.2188,1462.7031 Q890.5938,1462.125 890,1461.8594 Q889.4063,1461.5781 888.7813,1461.5781 Q887.4375,1461.5781 886.75,1462.6563 Q886.0625,1463.7188 886.0625,1465.8125 Q886.0625,1467.9063 886.75,1468.9844 Q887.4375,1470.0469 888.7813,1470.0469 Q889.4063,1470.0469 890,1469.7813 Q890.5938,1469.5 891.2188,1468.9219 L891.2188,1471.6406 Z "/><text fill="#000000" font-family="sans-serif" font-size="12" lengthAdjust="spacingAndGlyphs" textLength="27" x="908.75" y="1470.1543">Item</text><line style="stroke: #006400; stroke-width: 1.5;" x1="831" x2="981" y1="1482" y2="1482"/><ellipse cx="841" cy="1493" fill="none" rx="3" ry="3" style="stroke: #038048; stroke-width: 1.0;"/><text fill="#000000" font-family="sans-serif" font-size="11" lengthAdjust="spacingAndGlyphs" textLength="95" x="850" y="1496.2104">std::string name</text><ellipse cx="841" cy="1505.8047" fill="none" rx="3" ry="3" style="stroke: #038048; stroke-width: 1.0;"/><text fill="#000000" font-family="sans-serif" font-size="11" lengthAdjust="spacingAndGlyphs" textLength="126" x="850" y="1509.0151">std::string description</text><ellipse cx="841" cy="1518.6094" fill="none" rx="3" ry="3" style="stroke: #038048; stroke-width: 1.0;"/><text fill="#000000" font-family="sans-serif" font-size="11" lengthAdjust="spacingAndGlyphs" textLength="77" x="850" y="1521.8198">bool isUsable</text><line style="stroke: #006400; stroke-width: 1.0;" x1="831" x2="981" y1="1528.4141" y2="1528.4141"/><ellipse cx="841" cy="1539.4141" fill="#84BE84" rx="3" ry="3" style="stroke: #038048; stroke-width: 1.0;"/><text fill="#000000" font-family="sans-serif" font-size="11" lengthAdjust="spacingAndGlyphs" textLength="92" x="850" y="1542.6245">std::string use()</text><!--MD5=[7d06c52e3817bfd187d33376379c939d]
link Player to GameServer--><path d="M572,389.2 C572,420.42 572,451.02 572,475.75 " fill="none" id="Player-&gt;GameServer" style="stroke: #2F4F4F; stroke-width: 1.0;"/><polygon fill="#F0F8FF" points="572,488.86,576,482.86,572,476.86,568,482.86,572,488.86" style="stroke: #2F4F4F; stroke-width: 1.0;"/><text fill="#000000" font-family="sans-serif" font-size="13" lengthAdjust="spacingAndGlyphs" textLength="85" x="573" y="434.0669">interacts with</text><!--MD5=[c674c883063a6c82e290e1dbdc11b0a4]
link GameServer to GameManager--><path d="M649.34,575.23 C676.93,594.66 704.9,620.48 720,652 C739.01,691.68 736.77,710.32 720,751 C710.36,774.38 697.14,796.65 681.85,817.51 " fill="none" id="GameServer-&gt;GameManager" style="stroke: #2F4F4F; stroke-width: 1.0;"/><polygon fill="#F0F8FF" points="673.94,827.96,680.7531,825.5974,681.1926,818.3997,674.3796,820.7623,673.94,827.96" style="stroke: #2F4F4F; stroke-width: 1.0;"/><text fill="#000000" font-family="sans-serif" font-size="13" lengthAdjust="spacingAndGlyphs" textLength="30" x="734" y="706.0669">uses</text><!--MD5=[452c04717b39a8f99bdc114d17d91d32]
link GameServer to ThreadPool--><path d="M521.54,575.05 C496.69,595.76 466.36,621.04 439.45,643.46 " fill="none" id="GameServer-&gt;ThreadPool" style="stroke: #2F4F4F; stroke-width: 1.0;"/><polygon fill="#F0F8FF" points="429.32,651.9,436.4904,651.1348,438.5419,644.2217,431.3715,644.9869,429.32,651.9" style="stroke: #2F4F4F; stroke-width: 1.0;"/><text fill="#000000" font-family="sans-serif" font-size="13" lengthAdjust="spacingAndGlyphs" textLength="80" x="484" y="618.0669">delegates to</text><!--MD5=[d14c932d5936bfa2c1bf8bc3873b4bc9]
link ThreadPool to GameManager--><path d="M390.94,751.15 C398.59,769.81 407.82,792.32 417.49,815.92 " fill="none" id="ThreadPool-&gt;GameManager" style="stroke: #2F4F4F; stroke-width: 1.0;"/><polygon fill="#2F4F4F" points="422.42,827.96,423.8465,820.8914,417.8702,816.856,416.4438,823.9246,422.42,827.96" style="stroke: #2F4F4F; stroke-width: 1.0;"/><text fill="#000000" font-family="sans-serif" font-size="13" lengthAdjust="spacingAndGlyphs" textLength="85" x="409" y="794.0669">interacts with</text><!--MD5=[2b41c13797bc6e9f52e1849536d63be2]
link GameManager to Room--><path d="M641.5,1145.39 C664.36,1168.75 687,1191.89 707.25,1212.59 " fill="none" id="GameManager-&gt;Room" style="stroke: #2F4F4F; stroke-width: 1.0;"/><polygon fill="#2F4F4F" points="716.38,1221.92,715.0428,1214.834,707.9876,1213.3429,709.3247,1220.4289,716.38,1221.92" style="stroke: #2F4F4F; stroke-width: 1.0;"/><text fill="#000000" font-family="sans-serif" font-size="13" lengthAdjust="spacingAndGlyphs" textLength="60" x="679" y="1188.0669">manages</text><!--MD5=[00a5fa2ff856ff45392a5a245010e521]
link GameManager to PlayerSession--><path d="M374.78,1145.39 C356.83,1170.64 339.07,1195.64 323.48,1217.57 " fill="none" id="GameManager-&gt;PlayerSession" style="stroke: #2F4F4F; stroke-width: 1.0;"/><polygon fill="#2F4F4F" points="315.78,1228.41,322.5178,1225.8405,322.7374,1218.6327,315.9996,1221.2022,315.78,1228.41" style="stroke: #2F4F4F; stroke-width: 1.0;"/><text fill="#000000" font-family="sans-serif" font-size="13" lengthAdjust="spacingAndGlyphs" textLength="60" x="348" y="1188.0669">manages</text><!--MD5=[83663bc9e1411d1c90708c375f713435]
link Room to Puzzle--><path d="M739.41,1360.19 C725.92,1381.3 711.01,1404.62 697.34,1426.01 " fill="none" id="Room-&gt;Puzzle" style="stroke: #2F4F4F; stroke-width: 1.0;"/><polygon fill="#2F4F4F" points="690.31,1437,696.9137,1434.1033,696.7798,1426.8935,690.176,1429.7901,690.31,1437" style="stroke: #2F4F4F; stroke-width: 1.0;"/><text fill="#000000" font-family="sans-serif" font-size="13" lengthAdjust="spacingAndGlyphs" textLength="54" x="718" y="1403.0669">contains</text><!--MD5=[7dfd4f87ecc419a87308a4a2c7dec4bf]
link Room to Item--><path d="M823.62,1360.19 C838.72,1385.54 855.73,1414.1 870.35,1438.65 " fill="none" id="Room-&gt;Item" style="stroke: #2F4F4F; stroke-width: 1.0;"/><polygon fill="#2F4F4F" points="877.1,1449.99,877.4715,1442.7885,870.9668,1439.6757,870.5953,1446.8773,877.1,1449.99" style="stroke: #2F4F4F; stroke-width: 1.0;"/><text fill="#000000" font-family="sans-serif" font-size="13" lengthAdjust="spacingAndGlyphs" textLength="54" x="849" y="1403.0669">contains</text><!--MD5=[7013c0ee4738f41a8f476502d6087b76]
@startuml CppClassDiagram
skinparam BackgroundColor #AliceBlue

skinparam class {
  BackgroundColor PaleGreen
  BorderColor DarkGreen
  ArrowColor DarkSlateGray
}

package "Client" {
  class Player {
    + std::string username
    + std::string currentRoom
    - -
    + void sendCommand(const std::string& command)
    + void move(const std::string& direction)
    + void interact(const std::string& item)
    + void requestHint()
    + void requestStatus()
    + void solvePuzzle(const std::string& solution)
    + void chat(const std::string& message)
    + void examine(const std::string& object)
    + void pickUp(const std::string& item)
    + void dropItem(const std::string& item)
    + void viewInventory()
    + void combineItems(const std::string& item1, const std::string& item2)
    + void lookAround()
    + void useDoor()
    + void unlockDoor(const std::string& item)
    + void activateMechanism(const std::string& mechanism)
    + void readObject(const std::string& object)
    + void inspectItem(const std::string& item)
    + void askForHelp()
    + void searchRoom()
  }
}

package "Server" {
  class GameServer {
    + GameManager gameLogic
    + ThreadPool threadPool
    - -
    + void handlePlayerConnect(const std::string& username)
  }

  class ThreadPool {
    + int maxThreads
    + GameManager& gameManager
    - -
    + void execute(std::function<void()> task)
    + void processClientRequest(const std::string& username, const std::string& topic, const std::string& message)
  }

  class GameManager {
    + std::vector<Room> rooms
    + std::unordered_map<std::string, PlayerSession> players
    - -
    + void initializeGame()
    + void movePlayer(PlayerSession& session, const std::string& direction)
    + bool checkPuzzle(PlayerSession& session, const std::string& solution)
    + std::string getHint(PlayerSession& session)
    + std::string getStatus(PlayerSession& session)
    + void handleCollaboration(const std::string& room, const std::string& username, const std::string& message)
    + std::string handleInteraction(PlayerSession& session, const std::string& action, const std::string& target)
    + std::string handleExamine(PlayerSession& session, const std::string& object)
    + std::string handlePickup(PlayerSession& session, const std::string& item)
    + std::string handleDrop(PlayerSession& session, const std::string& item)
    + std::vector<Item> handleInventory(PlayerSession& session)
    + std::string handleCombine(PlayerSession& session, const std::string& item1, const std::string& item2)
    + std::string handleLookAround(PlayerSession& session)
    + std::string handleUseDoor(PlayerSession& session)
    + std::string handleUnlockDoor(PlayerSession& session, const std::string& item)
    + std::string handleActivate(PlayerSession& session, const std::string& mechanism)
    + std::string handleRead(PlayerSession& session, const std::string& object)
    + std::string handleInspect(PlayerSession& session, const std::string& item)
    + std::string handleSearch(PlayerSession& session)
  }

  class PlayerSession {
    + std::string username
    + std::chrono::system_clock::time_point lastActivityTime
    - -
    + std::string processCommand(const std::string& command)
    + std::string getHint()
    + std::string getStatus()
    + std::string executeAction(const std::string& action, const std::string& target)
  }

  class Room {
    + std::string name
    + std::string description
    + std::vector<Puzzle> puzzles
    + std::vector<Item> items
    + std::vector<std::string> connectedPlayers
    - -
    + std::string describeRoom(const PlayerSession& session)
    + std::string handleInteraction(PlayerSession& session, const std::string& action)
  }

  class Puzzle {
    + std::string name
    + std::string description
    + std::string solution
    + bool isSolved
    - -
    + bool attemptSolution(const std::string& input)
    + std::string getClue()
  }

  class Item {
    + std::string name
    + std::string description
    + bool isUsable
    - -
    + std::string use()
  }
}

Player - -o GameServer : interacts with
GameServer - -o GameManager : uses
GameServer - -o ThreadPool : delegates to
ThreadPool - -* GameManager : interacts with 
GameManager - -* Room : manages
GameManager - -* PlayerSession : manages
Room - -* Puzzle : contains
Room - -* Item : contains

@enduml

PlantUML version 1.2020.02(Sun Mar 01 11:22:07 CET 2020)
(GPL source distribution)
Java Runtime: OpenJDK Runtime Environment
JVM: OpenJDK 64-Bit Server VM
Java Version: 21.0.6+7-Ubuntu-124.04.1
Operating System: Linux
Default Encoding: UTF-8
Language: en
Country: null
--></g></svg>