<?xml version="1.0" encoding="UTF-8" standalone="no"?><svg xmlns="http://www.w3.org/2000/svg" xmlns:xlink="http://www.w3.org/1999/xlink" contentScriptType="application/ecmascript" contentStyleType="text/css" height="1334px" preserveAspectRatio="none" style="width:695px;height:1334px;background:#F0F8FF;" version="1.1" viewBox="0 0 695 1334" width="695px" zoomAndPan="magnify"><defs><filter height="300%" id="f6j7r58obz0zk" width="300%" x="-1" y="-1"><feGaussianBlur result="blurOut" stdDeviation="2.0"/><feColorMatrix in="blurOut" result="blurOut2" type="matrix" values="0 0 0 0 0 0 0 0 0 0 0 0 0 0 0 0 0 0 .4 0"/><feOffset dx="4.0" dy="4.0" in="blurOut2" result="blurOut3"/><feBlend in="SourceGraphic" in2="blurOut3" mode="normal"/></filter></defs><g><!--MD5=[406b65fecc21e832f7a9b6ebadc6dce1]
cluster Client--><polygon fill="#F0F8FF" filter="url(#f6j7r58obz0zk)" points="110,24,161,24,168,46.2969,584,46.2969,584,264,110,264,110,24" style="stroke: #000000; stroke-width: 1.5;"/><line style="stroke: #000000; stroke-width: 1.5;" x1="110" x2="168" y1="46.2969" y2="46.2969"/><text fill="#000000" font-family="sans-serif" font-size="14" font-weight="bold" lengthAdjust="spacingAndGlyphs" textLength="45" x="114" y="38.9951">Client</text><!--MD5=[979da56a7f83e2393dc758167ae295d0]
cluster Server--><polygon fill="#F0F8FF" filter="url(#f6j7r58obz0zk)" points="22,313,81,313,88,335.2969,673,335.2969,673,1322,22,1322,22,313" style="stroke: #000000; stroke-width: 1.5;"/><line style="stroke: #000000; stroke-width: 1.5;" x1="22" x2="88" y1="335.2969" y2="335.2969"/><text fill="#000000" font-family="sans-serif" font-size="14" font-weight="bold" lengthAdjust="spacingAndGlyphs" textLength="53" x="26" y="327.9951">Server</text><!--MD5=[2cb47ba637a0d19583e6199456f6ad0b]
class Player--><rect fill="#98FB98" filter="url(#f6j7r58obz0zk)" height="188.8516" id="Player" style="stroke: #006400; stroke-width: 1.5;" width="442" x="126" y="59"/><ellipse cx="323.75" cy="75" fill="#ADD1B2" rx="11" ry="11" style="stroke: #006400; stroke-width: 1.0;"/><path d="M326.7188,80.6406 Q326.1406,80.9375 325.5,81.0781 Q324.8594,81.2344 324.1563,81.2344 Q321.6563,81.2344 320.3281,79.5938 Q319.0156,77.9375 319.0156,74.8125 Q319.0156,71.6875 320.3281,70.0313 Q321.6563,68.375 324.1563,68.375 Q324.8594,68.375 325.5,68.5313 Q326.1563,68.6875 326.7188,68.9844 L326.7188,71.7031 Q326.0938,71.125 325.5,70.8594 Q324.9063,70.5781 324.2813,70.5781 Q322.9375,70.5781 322.25,71.6563 Q321.5625,72.7188 321.5625,74.8125 Q321.5625,76.9063 322.25,77.9844 Q322.9375,79.0469 324.2813,79.0469 Q324.9063,79.0469 325.5,78.7813 Q326.0938,78.5 326.7188,77.9219 L326.7188,80.6406 Z "/><text fill="#000000" font-family="sans-serif" font-size="12" lengthAdjust="spacingAndGlyphs" textLength="38" x="344.25" y="79.1543">Player</text><line style="stroke: #006400; stroke-width: 1.5;" x1="127" x2="567" y1="91" y2="91"/><ellipse cx="137" cy="102" fill="none" rx="3" ry="3" style="stroke: #038048; stroke-width: 1.0;"/><text fill="#000000" font-family="sans-serif" font-size="11" lengthAdjust="spacingAndGlyphs" textLength="121" x="146" y="105.2104">std::string username</text><ellipse cx="137" cy="114.8047" fill="none" rx="3" ry="3" style="stroke: #038048; stroke-width: 1.0;"/><text fill="#000000" font-family="sans-serif" font-size="11" lengthAdjust="spacingAndGlyphs" textLength="136" x="146" y="118.0151">std::string currentRoom</text><line style="stroke: #006400; stroke-width: 1.0;" x1="127" x2="567" y1="124.6094" y2="124.6094"/><ellipse cx="137" cy="135.6094" fill="#84BE84" rx="3" ry="3" style="stroke: #038048; stroke-width: 1.0;"/><text fill="#000000" font-family="sans-serif" font-size="11" lengthAdjust="spacingAndGlyphs" textLength="285" x="146" y="138.8198">void sendCommand(const std::string&amp; command)</text><ellipse cx="137" cy="148.4141" fill="#84BE84" rx="3" ry="3" style="stroke: #038048; stroke-width: 1.0;"/><text fill="#000000" font-family="sans-serif" font-size="11" lengthAdjust="spacingAndGlyphs" textLength="223" x="146" y="151.6245">void move(const std::string&amp; direction)</text><ellipse cx="137" cy="161.2188" fill="#84BE84" rx="3" ry="3" style="stroke: #038048; stroke-width: 1.0;"/><text fill="#000000" font-family="sans-serif" font-size="11" lengthAdjust="spacingAndGlyphs" textLength="220" x="146" y="164.4292">void interact(const std::string&amp; target)</text><ellipse cx="137" cy="174.0234" fill="#84BE84" rx="3" ry="3" style="stroke: #038048; stroke-width: 1.0;"/><text fill="#000000" font-family="sans-serif" font-size="11" lengthAdjust="spacingAndGlyphs" textLength="218" x="146" y="177.2339">void inspect(const std::string&amp; object)</text><ellipse cx="137" cy="186.8281" fill="#84BE84" rx="3" ry="3" style="stroke: #038048; stroke-width: 1.0;"/><text fill="#000000" font-family="sans-serif" font-size="11" lengthAdjust="spacingAndGlyphs" textLength="416" x="146" y="190.0386">void manageInventory(const std::string&amp; action, const std::string&amp; item)</text><ellipse cx="137" cy="199.6328" fill="#84BE84" rx="3" ry="3" style="stroke: #038048; stroke-width: 1.0;"/><text fill="#000000" font-family="sans-serif" font-size="11" lengthAdjust="spacingAndGlyphs" textLength="104" x="146" y="202.8433">void requestHelp()</text><ellipse cx="137" cy="212.4375" fill="#84BE84" rx="3" ry="3" style="stroke: #038048; stroke-width: 1.0;"/><text fill="#000000" font-family="sans-serif" font-size="11" lengthAdjust="spacingAndGlyphs" textLength="98" x="146" y="215.6479">void lookAround()</text><ellipse cx="137" cy="225.2422" fill="#84BE84" rx="3" ry="3" style="stroke: #038048; stroke-width: 1.0;"/><text fill="#000000" font-family="sans-serif" font-size="11" lengthAdjust="spacingAndGlyphs" textLength="149" x="146" y="228.4526">std::string joinChatRoom()</text><text fill="#000000" font-family="sans-serif" font-size="11" lengthAdjust="spacingAndGlyphs" textLength="0" x="150" y="241.2573"/><!--MD5=[9b062260d680ccf45bd4bb57fda64d79]
class GameServer--><rect fill="#98FB98" filter="url(#f6j7r58obz0zk)" height="86.4141" id="GameServer" style="stroke: #006400; stroke-width: 1.5;" width="371" x="161.5" y="348"/><ellipse cx="304.75" cy="364" fill="#ADD1B2" rx="11" ry="11" style="stroke: #006400; stroke-width: 1.0;"/><path d="M307.7188,369.6406 Q307.1406,369.9375 306.5,370.0781 Q305.8594,370.2344 305.1563,370.2344 Q302.6563,370.2344 301.3281,368.5938 Q300.0156,366.9375 300.0156,363.8125 Q300.0156,360.6875 301.3281,359.0313 Q302.6563,357.375 305.1563,357.375 Q305.8594,357.375 306.5,357.5313 Q307.1563,357.6875 307.7188,357.9844 L307.7188,360.7031 Q307.0938,360.125 306.5,359.8594 Q305.9063,359.5781 305.2813,359.5781 Q303.9375,359.5781 303.25,360.6563 Q302.5625,361.7188 302.5625,363.8125 Q302.5625,365.9063 303.25,366.9844 Q303.9375,368.0469 305.2813,368.0469 Q305.9063,368.0469 306.5,367.7813 Q307.0938,367.5 307.7188,366.9219 L307.7188,369.6406 Z "/><text fill="#000000" font-family="sans-serif" font-size="12" lengthAdjust="spacingAndGlyphs" textLength="76" x="325.25" y="368.1543">GameServer</text><line style="stroke: #006400; stroke-width: 1.5;" x1="162.5" x2="531.5" y1="380" y2="380"/><ellipse cx="172.5" cy="391" fill="none" rx="3" ry="3" style="stroke: #038048; stroke-width: 1.0;"/><text fill="#000000" font-family="sans-serif" font-size="11" lengthAdjust="spacingAndGlyphs" textLength="148" x="181.5" y="394.2104">GameManager gameLogic</text><ellipse cx="172.5" cy="403.8047" fill="none" rx="3" ry="3" style="stroke: #038048; stroke-width: 1.0;"/><text fill="#000000" font-family="sans-serif" font-size="11" lengthAdjust="spacingAndGlyphs" textLength="345" x="181.5" y="407.0151">std::unordered_map&lt;std::string, std::thread&gt; clientThreads</text><line style="stroke: #006400; stroke-width: 1.0;" x1="162.5" x2="531.5" y1="413.6094" y2="413.6094"/><ellipse cx="172.5" cy="424.6094" fill="#84BE84" rx="3" ry="3" style="stroke: #038048; stroke-width: 1.0;"/><text fill="#000000" font-family="sans-serif" font-size="11" lengthAdjust="spacingAndGlyphs" textLength="320" x="181.5" y="427.8198">void handlePlayerConnect(const std::string&amp; username)</text><!--MD5=[ebecb9917226677787fac7e9a2731304]
class GameManager--><rect fill="#98FB98" filter="url(#f6j7r58obz0zk)" height="163.2422" id="GameManager" style="stroke: #006400; stroke-width: 1.5;" width="609" x="42.5" y="511"/><ellipse cx="297.25" cy="527" fill="#ADD1B2" rx="11" ry="11" style="stroke: #006400; stroke-width: 1.0;"/><path d="M300.2188,532.6406 Q299.6406,532.9375 299,533.0781 Q298.3594,533.2344 297.6563,533.2344 Q295.1563,533.2344 293.8281,531.5938 Q292.5156,529.9375 292.5156,526.8125 Q292.5156,523.6875 293.8281,522.0313 Q295.1563,520.375 297.6563,520.375 Q298.3594,520.375 299,520.5313 Q299.6563,520.6875 300.2188,520.9844 L300.2188,523.7031 Q299.5938,523.125 299,522.8594 Q298.4063,522.5781 297.7813,522.5781 Q296.4375,522.5781 295.75,523.6563 Q295.0625,524.7188 295.0625,526.8125 Q295.0625,528.9063 295.75,529.9844 Q296.4375,531.0469 297.7813,531.0469 Q298.4063,531.0469 299,530.7813 Q299.5938,530.5 300.2188,529.9219 L300.2188,532.6406 Z "/><text fill="#000000" font-family="sans-serif" font-size="12" lengthAdjust="spacingAndGlyphs" textLength="91" x="317.75" y="531.1543">GameManager</text><line style="stroke: #006400; stroke-width: 1.5;" x1="43.5" x2="650.5" y1="543" y2="543"/><ellipse cx="53.5" cy="554" fill="none" rx="3" ry="3" style="stroke: #038048; stroke-width: 1.0;"/><text fill="#000000" font-family="sans-serif" font-size="11" lengthAdjust="spacingAndGlyphs" textLength="205" x="62.5" y="557.2104">std::vector&lt;Room&gt; roomTemplates</text><ellipse cx="53.5" cy="566.8047" fill="none" rx="3" ry="3" style="stroke: #038048; stroke-width: 1.0;"/><text fill="#000000" font-family="sans-serif" font-size="11" lengthAdjust="spacingAndGlyphs" textLength="328" x="62.5" y="570.0151">std::unordered_map&lt;std::string, PlayerSession&gt; players</text><line style="stroke: #006400; stroke-width: 1.0;" x1="43.5" x2="650.5" y1="576.6094" y2="576.6094"/><ellipse cx="53.5" cy="587.6094" fill="#84BE84" rx="3" ry="3" style="stroke: #038048; stroke-width: 1.0;"/><text fill="#000000" font-family="sans-serif" font-size="11" lengthAdjust="spacingAndGlyphs" textLength="114" x="62.5" y="590.8198">void initializeGame()</text><ellipse cx="53.5" cy="600.4141" fill="#84BE84" rx="3" ry="3" style="stroke: #038048; stroke-width: 1.0;"/><text fill="#000000" font-family="sans-serif" font-size="11" lengthAdjust="spacingAndGlyphs" textLength="406" x="62.5" y="603.6245">void movePlayer(PlayerSession&amp; session, const std::string&amp; direction)</text><ellipse cx="53.5" cy="613.2188" fill="#84BE84" rx="3" ry="3" style="stroke: #038048; stroke-width: 1.0;"/><text fill="#000000" font-family="sans-serif" font-size="11" lengthAdjust="spacingAndGlyphs" textLength="583" x="62.5" y="616.4292">std::string handleAction(PlayerSession&amp; session, const std::string&amp; action, const std::string&amp; target)</text><ellipse cx="53.5" cy="626.0234" fill="#84BE84" rx="3" ry="3" style="stroke: #038048; stroke-width: 1.0;"/><text fill="#000000" font-family="sans-serif" font-size="11" lengthAdjust="spacingAndGlyphs" textLength="251" x="62.5" y="629.2339">std::string getHint(PlayerSession&amp; session)</text><ellipse cx="53.5" cy="638.8281" fill="#84BE84" rx="3" ry="3" style="stroke: #038048; stroke-width: 1.0;"/><text fill="#000000" font-family="sans-serif" font-size="11" lengthAdjust="spacingAndGlyphs" textLength="266" x="62.5" y="642.0386">std::string getStatus(PlayerSession&amp; session)</text><ellipse cx="53.5" cy="651.6328" fill="#84BE84" rx="3" ry="3" style="stroke: #038048; stroke-width: 1.0;"/><text fill="#000000" font-family="sans-serif" font-size="11" lengthAdjust="spacingAndGlyphs" textLength="285" x="62.5" y="654.8433">std::string getChatTopic(PlayerSession&amp; session)</text><text fill="#000000" font-family="sans-serif" font-size="11" lengthAdjust="spacingAndGlyphs" textLength="0" x="66.5" y="667.6479"/><!--MD5=[cbc00b7300829a47947ebd24d4d70cd8]
class PlayerSession--><rect fill="#98FB98" filter="url(#f6j7r58obz0zk)" height="137.6328" id="PlayerSession" style="stroke: #006400; stroke-width: 1.5;" width="467" x="38.5" y="751"/><ellipse cx="224.25" cy="767" fill="#ADD1B2" rx="11" ry="11" style="stroke: #006400; stroke-width: 1.0;"/><path d="M227.2188,772.6406 Q226.6406,772.9375 226,773.0781 Q225.3594,773.2344 224.6563,773.2344 Q222.1563,773.2344 220.8281,771.5938 Q219.5156,769.9375 219.5156,766.8125 Q219.5156,763.6875 220.8281,762.0313 Q222.1563,760.375 224.6563,760.375 Q225.3594,760.375 226,760.5313 Q226.6563,760.6875 227.2188,760.9844 L227.2188,763.7031 Q226.5938,763.125 226,762.8594 Q225.4063,762.5781 224.7813,762.5781 Q223.4375,762.5781 222.75,763.6563 Q222.0625,764.7188 222.0625,766.8125 Q222.0625,768.9063 222.75,769.9844 Q223.4375,771.0469 224.7813,771.0469 Q225.4063,771.0469 226,770.7813 Q226.5938,770.5 227.2188,769.9219 L227.2188,772.6406 Z "/><text fill="#000000" font-family="sans-serif" font-size="12" lengthAdjust="spacingAndGlyphs" textLength="87" x="244.75" y="771.1543">PlayerSession</text><line style="stroke: #006400; stroke-width: 1.5;" x1="39.5" x2="504.5" y1="783" y2="783"/><ellipse cx="49.5" cy="794" fill="none" rx="3" ry="3" style="stroke: #038048; stroke-width: 1.0;"/><text fill="#000000" font-family="sans-serif" font-size="11" lengthAdjust="spacingAndGlyphs" textLength="121" x="58.5" y="797.2104">std::string username</text><ellipse cx="49.5" cy="806.8047" fill="none" rx="3" ry="3" style="stroke: #038048; stroke-width: 1.0;"/><text fill="#000000" font-family="sans-serif" font-size="11" lengthAdjust="spacingAndGlyphs" textLength="118" x="58.5" y="810.0151">Room personalRoom</text><ellipse cx="49.5" cy="819.6094" fill="none" rx="3" ry="3" style="stroke: #038048; stroke-width: 1.0;"/><text fill="#000000" font-family="sans-serif" font-size="11" lengthAdjust="spacingAndGlyphs" textLength="308" x="58.5" y="822.8198">std::chrono::system_clock::time_point lastActivityTime</text><line style="stroke: #006400; stroke-width: 1.0;" x1="39.5" x2="504.5" y1="829.4141" y2="829.4141"/><ellipse cx="49.5" cy="840.4141" fill="#84BE84" rx="3" ry="3" style="stroke: #038048; stroke-width: 1.0;"/><text fill="#000000" font-family="sans-serif" font-size="11" lengthAdjust="spacingAndGlyphs" textLength="339" x="58.5" y="843.6245">std::string processCommand(const std::string&amp; command)</text><ellipse cx="49.5" cy="853.2188" fill="#84BE84" rx="3" ry="3" style="stroke: #038048; stroke-width: 1.0;"/><text fill="#000000" font-family="sans-serif" font-size="11" lengthAdjust="spacingAndGlyphs" textLength="111" x="58.5" y="856.4292">std::string getHint()</text><ellipse cx="49.5" cy="866.0234" fill="#84BE84" rx="3" ry="3" style="stroke: #038048; stroke-width: 1.0;"/><text fill="#000000" font-family="sans-serif" font-size="11" lengthAdjust="spacingAndGlyphs" textLength="126" x="58.5" y="869.2339">std::string getStatus()</text><ellipse cx="49.5" cy="878.8281" fill="#84BE84" rx="3" ry="3" style="stroke: #038048; stroke-width: 1.0;"/><text fill="#000000" font-family="sans-serif" font-size="11" lengthAdjust="spacingAndGlyphs" textLength="441" x="58.5" y="882.0386">std::string executeAction(const std::string&amp; action, const std::string&amp; target)</text><!--MD5=[d218c48b946d362ff1ecd879cabebcad]
class Room--><rect fill="#98FB98" filter="url(#f6j7r58obz0zk)" height="137.6328" id="Room" style="stroke: #006400; stroke-width: 1.5;" width="430" x="131" y="966"/><ellipse cx="324.25" cy="982" fill="#ADD1B2" rx="11" ry="11" style="stroke: #006400; stroke-width: 1.0;"/><path d="M327.2188,987.6406 Q326.6406,987.9375 326,988.0781 Q325.3594,988.2344 324.6563,988.2344 Q322.1563,988.2344 320.8281,986.5938 Q319.5156,984.9375 319.5156,981.8125 Q319.5156,978.6875 320.8281,977.0313 Q322.1563,975.375 324.6563,975.375 Q325.3594,975.375 326,975.5313 Q326.6563,975.6875 327.2188,975.9844 L327.2188,978.7031 Q326.5938,978.125 326,977.8594 Q325.4063,977.5781 324.7813,977.5781 Q323.4375,977.5781 322.75,978.6563 Q322.0625,979.7188 322.0625,981.8125 Q322.0625,983.9063 322.75,984.9844 Q323.4375,986.0469 324.7813,986.0469 Q325.4063,986.0469 326,985.7813 Q326.5938,985.5 327.2188,984.9219 L327.2188,987.6406 Z "/><text fill="#000000" font-family="sans-serif" font-size="12" lengthAdjust="spacingAndGlyphs" textLength="35" x="344.75" y="986.1543">Room</text><line style="stroke: #006400; stroke-width: 1.5;" x1="132" x2="560" y1="998" y2="998"/><ellipse cx="142" cy="1009" fill="none" rx="3" ry="3" style="stroke: #038048; stroke-width: 1.0;"/><text fill="#000000" font-family="sans-serif" font-size="11" lengthAdjust="spacingAndGlyphs" textLength="95" x="151" y="1012.2104">std::string name</text><ellipse cx="142" cy="1021.8047" fill="none" rx="3" ry="3" style="stroke: #038048; stroke-width: 1.0;"/><text fill="#000000" font-family="sans-serif" font-size="11" lengthAdjust="spacingAndGlyphs" textLength="126" x="151" y="1025.0151">std::string description</text><ellipse cx="142" cy="1034.6094" fill="none" rx="3" ry="3" style="stroke: #038048; stroke-width: 1.0;"/><text fill="#000000" font-family="sans-serif" font-size="11" lengthAdjust="spacingAndGlyphs" textLength="158" x="151" y="1037.8198">std::vector&lt;Puzzle&gt; puzzles</text><ellipse cx="142" cy="1047.4141" fill="none" rx="3" ry="3" style="stroke: #038048; stroke-width: 1.0;"/><text fill="#000000" font-family="sans-serif" font-size="11" lengthAdjust="spacingAndGlyphs" textLength="140" x="151" y="1050.6245">std::vector&lt;Item&gt; items</text><ellipse cx="142" cy="1060.2188" fill="none" rx="3" ry="3" style="stroke: #038048; stroke-width: 1.0;"/><text fill="#000000" font-family="sans-serif" font-size="11" lengthAdjust="spacingAndGlyphs" textLength="242" x="151" y="1063.4292">std::vector&lt;std::string&gt; connectedPlayers</text><line style="stroke: #006400; stroke-width: 1.0;" x1="132" x2="560" y1="1070.0234" y2="1070.0234"/><ellipse cx="142" cy="1081.0234" fill="#84BE84" rx="3" ry="3" style="stroke: #038048; stroke-width: 1.0;"/><text fill="#000000" font-family="sans-serif" font-size="11" lengthAdjust="spacingAndGlyphs" textLength="327" x="151" y="1084.2339">std::string describeRoom(const PlayerSession&amp; session)</text><ellipse cx="142" cy="1093.8281" fill="#84BE84" rx="3" ry="3" style="stroke: #038048; stroke-width: 1.0;"/><text fill="#000000" font-family="sans-serif" font-size="11" lengthAdjust="spacingAndGlyphs" textLength="404" x="151" y="1097.0386">std::string interact(PlayerSession&amp; session, const std::string&amp; action)</text><!--MD5=[bdb67d807b54310fa85dc9d3c5aad932]
class Puzzle--><rect fill="#98FB98" filter="url(#f6j7r58obz0zk)" height="124.8281" id="Puzzle" style="stroke: #006400; stroke-width: 1.5;" width="288" x="80" y="1181"/><ellipse cx="201.25" cy="1197" fill="#ADD1B2" rx="11" ry="11" style="stroke: #006400; stroke-width: 1.0;"/><path d="M204.2188,1202.6406 Q203.6406,1202.9375 203,1203.0781 Q202.3594,1203.2344 201.6563,1203.2344 Q199.1563,1203.2344 197.8281,1201.5938 Q196.5156,1199.9375 196.5156,1196.8125 Q196.5156,1193.6875 197.8281,1192.0313 Q199.1563,1190.375 201.6563,1190.375 Q202.3594,1190.375 203,1190.5313 Q203.6563,1190.6875 204.2188,1190.9844 L204.2188,1193.7031 Q203.5938,1193.125 203,1192.8594 Q202.4063,1192.5781 201.7813,1192.5781 Q200.4375,1192.5781 199.75,1193.6563 Q199.0625,1194.7188 199.0625,1196.8125 Q199.0625,1198.9063 199.75,1199.9844 Q200.4375,1201.0469 201.7813,1201.0469 Q202.4063,1201.0469 203,1200.7813 Q203.5938,1200.5 204.2188,1199.9219 L204.2188,1202.6406 Z "/><text fill="#000000" font-family="sans-serif" font-size="12" lengthAdjust="spacingAndGlyphs" textLength="37" x="221.75" y="1201.1543">Puzzle</text><line style="stroke: #006400; stroke-width: 1.5;" x1="81" x2="367" y1="1213" y2="1213"/><ellipse cx="91" cy="1224" fill="none" rx="3" ry="3" style="stroke: #038048; stroke-width: 1.0;"/><text fill="#000000" font-family="sans-serif" font-size="11" lengthAdjust="spacingAndGlyphs" textLength="95" x="100" y="1227.2104">std::string name</text><ellipse cx="91" cy="1236.8047" fill="none" rx="3" ry="3" style="stroke: #038048; stroke-width: 1.0;"/><text fill="#000000" font-family="sans-serif" font-size="11" lengthAdjust="spacingAndGlyphs" textLength="126" x="100" y="1240.0151">std::string description</text><ellipse cx="91" cy="1249.6094" fill="none" rx="3" ry="3" style="stroke: #038048; stroke-width: 1.0;"/><text fill="#000000" font-family="sans-serif" font-size="11" lengthAdjust="spacingAndGlyphs" textLength="108" x="100" y="1252.8198">std::string solution</text><ellipse cx="91" cy="1262.4141" fill="none" rx="3" ry="3" style="stroke: #038048; stroke-width: 1.0;"/><text fill="#000000" font-family="sans-serif" font-size="11" lengthAdjust="spacingAndGlyphs" textLength="76" x="100" y="1265.6245">bool isSolved</text><line style="stroke: #006400; stroke-width: 1.0;" x1="81" x2="367" y1="1272.2188" y2="1272.2188"/><ellipse cx="91" cy="1283.2188" fill="#84BE84" rx="3" ry="3" style="stroke: #038048; stroke-width: 1.0;"/><text fill="#000000" font-family="sans-serif" font-size="11" lengthAdjust="spacingAndGlyphs" textLength="262" x="100" y="1286.4292">bool attemptSolution(const std::string&amp; input)</text><ellipse cx="91" cy="1296.0234" fill="#84BE84" rx="3" ry="3" style="stroke: #038048; stroke-width: 1.0;"/><text fill="#000000" font-family="sans-serif" font-size="11" lengthAdjust="spacingAndGlyphs" textLength="114" x="100" y="1299.2339">std::string getClue()</text><!--MD5=[44a1b4afaef76c16e6c9ec4990ad0c8d]
class Item--><rect fill="#98FB98" filter="url(#f6j7r58obz0zk)" height="99.2188" id="Item" style="stroke: #006400; stroke-width: 1.5;" width="152" x="403" y="1194"/><ellipse cx="461.25" cy="1210" fill="#ADD1B2" rx="11" ry="11" style="stroke: #006400; stroke-width: 1.0;"/><path d="M464.2188,1215.6406 Q463.6406,1215.9375 463,1216.0781 Q462.3594,1216.2344 461.6563,1216.2344 Q459.1563,1216.2344 457.8281,1214.5938 Q456.5156,1212.9375 456.5156,1209.8125 Q456.5156,1206.6875 457.8281,1205.0313 Q459.1563,1203.375 461.6563,1203.375 Q462.3594,1203.375 463,1203.5313 Q463.6563,1203.6875 464.2188,1203.9844 L464.2188,1206.7031 Q463.5938,1206.125 463,1205.8594 Q462.4063,1205.5781 461.7813,1205.5781 Q460.4375,1205.5781 459.75,1206.6563 Q459.0625,1207.7188 459.0625,1209.8125 Q459.0625,1211.9063 459.75,1212.9844 Q460.4375,1214.0469 461.7813,1214.0469 Q462.4063,1214.0469 463,1213.7813 Q463.5938,1213.5 464.2188,1212.9219 L464.2188,1215.6406 Z "/><text fill="#000000" font-family="sans-serif" font-size="12" lengthAdjust="spacingAndGlyphs" textLength="27" x="481.75" y="1214.1543">Item</text><line style="stroke: #006400; stroke-width: 1.5;" x1="404" x2="554" y1="1226" y2="1226"/><ellipse cx="414" cy="1237" fill="none" rx="3" ry="3" style="stroke: #038048; stroke-width: 1.0;"/><text fill="#000000" font-family="sans-serif" font-size="11" lengthAdjust="spacingAndGlyphs" textLength="95" x="423" y="1240.2104">std::string name</text><ellipse cx="414" cy="1249.8047" fill="none" rx="3" ry="3" style="stroke: #038048; stroke-width: 1.0;"/><text fill="#000000" font-family="sans-serif" font-size="11" lengthAdjust="spacingAndGlyphs" textLength="126" x="423" y="1253.0151">std::string description</text><ellipse cx="414" cy="1262.6094" fill="none" rx="3" ry="3" style="stroke: #038048; stroke-width: 1.0;"/><text fill="#000000" font-family="sans-serif" font-size="11" lengthAdjust="spacingAndGlyphs" textLength="77" x="423" y="1265.8198">bool isUsable</text><line style="stroke: #006400; stroke-width: 1.0;" x1="404" x2="554" y1="1272.4141" y2="1272.4141"/><ellipse cx="414" cy="1283.4141" fill="#84BE84" rx="3" ry="3" style="stroke: #038048; stroke-width: 1.0;"/><text fill="#000000" font-family="sans-serif" font-size="11" lengthAdjust="spacingAndGlyphs" textLength="92" x="423" y="1286.6245">std::string use()</text><!--MD5=[7d06c52e3817bfd187d33376379c939d]
link Player to GameServer--><path d="M347,248.25 C347,277.5 347,308.81 347,334.55 " fill="none" id="Player-&gt;GameServer" style="stroke: #2F4F4F; stroke-width: 1.0;"/><polygon fill="#F0F8FF" points="347,347.84,351,341.84,347,335.84,343,341.84,347,347.84" style="stroke: #2F4F4F; stroke-width: 1.0;"/><text fill="#000000" font-family="sans-serif" font-size="13" lengthAdjust="spacingAndGlyphs" textLength="85" x="348" y="293.0669">interacts with</text><!--MD5=[c674c883063a6c82e290e1dbdc11b0a4]
link GameServer to GameManager--><path d="M347,434.31 C347,452.95 347,475.66 347,497.95 " fill="none" id="GameServer-&gt;GameManager" style="stroke: #2F4F4F; stroke-width: 1.0;"/><polygon fill="#2F4F4F" points="347,510.99,351,504.99,347,498.99,343,504.99,347,510.99" style="stroke: #2F4F4F; stroke-width: 1.0;"/><text fill="#000000" font-family="sans-serif" font-size="13" lengthAdjust="spacingAndGlyphs" textLength="30" x="348" y="477.0669">uses</text><!--MD5=[2b41c13797bc6e9f52e1849536d63be2]
link GameManager to Room--><path d="M465.46,674.12 C488.78,696.11 510.03,721.99 523,751 C548.03,806.99 549.25,833.57 523,889 C510.76,914.84 491.42,937.61 469.92,957 " fill="none" id="GameManager-&gt;Room" style="stroke: #2F4F4F; stroke-width: 1.0;"/><polygon fill="#2F4F4F" points="459.92,965.67,467.0741,964.7648,468.99,957.8128,461.836,958.7181,459.92,965.67" style="stroke: #2F4F4F; stroke-width: 1.0;"/><text fill="#000000" font-family="sans-serif" font-size="13" lengthAdjust="spacingAndGlyphs" textLength="79" x="543" y="824.5669">template for</text><!--MD5=[00a5fa2ff856ff45392a5a245010e521]
link GameManager to PlayerSession--><path d="M320.14,674.27 C313.21,695.09 305.76,717.5 298.84,738.31 " fill="none" id="GameManager-&gt;PlayerSession" style="stroke: #2F4F4F; stroke-width: 1.0;"/><polygon fill="#2F4F4F" points="294.72,750.7,300.4075,746.2669,298.5029,739.3119,292.8154,743.745,294.72,750.7" style="stroke: #2F4F4F; stroke-width: 1.0;"/><text fill="#000000" font-family="sans-serif" font-size="13" lengthAdjust="spacingAndGlyphs" textLength="60" x="310" y="717.0669">manages</text><!--MD5=[e209ed0fc6d056a0e21ef3b58405623b]
link PlayerSession to Room--><path d="M295.72,889.27 C302.79,909.62 310.61,932.12 317.93,953.19 " fill="none" id="PlayerSession-&gt;Room" style="stroke: #2F4F4F; stroke-width: 1.0;"/><polygon fill="#2F4F4F" points="322.29,965.75,324.0978,958.7692,318.3493,954.4155,316.5415,961.3963,322.29,965.75" style="stroke: #2F4F4F; stroke-width: 1.0;"/><text fill="#000000" font-family="sans-serif" font-size="13" lengthAdjust="spacingAndGlyphs" textLength="32" x="312" y="932.0669">owns</text><!--MD5=[83663bc9e1411d1c90708c375f713435]
link Room to Puzzle--><path d="M305.71,1104.19 C293.3,1125.2 279.59,1148.41 267,1169.72 " fill="none" id="Room-&gt;Puzzle" style="stroke: #2F4F4F; stroke-width: 1.0;"/><polygon fill="#2F4F4F" points="260.33,1181,266.827,1177.8713,266.4379,1170.6707,259.9408,1173.7994,260.33,1181" style="stroke: #2F4F4F; stroke-width: 1.0;"/><text fill="#000000" font-family="sans-serif" font-size="13" lengthAdjust="spacingAndGlyphs" textLength="54" x="286" y="1147.0669">contains</text><!--MD5=[7dfd4f87ecc419a87308a4a2c7dec4bf]
link Room to Item--><path d="M389.92,1104.19 C406.32,1129.66 424.81,1158.36 440.67,1182.98 " fill="none" id="Room-&gt;Item" style="stroke: #2F4F4F; stroke-width: 1.0;"/><polygon fill="#2F4F4F" points="447.75,1193.99,447.8621,1186.7798,441.2496,1183.9031,441.1375,1191.1134,447.75,1193.99" style="stroke: #2F4F4F; stroke-width: 1.0;"/><text fill="#000000" font-family="sans-serif" font-size="13" lengthAdjust="spacingAndGlyphs" textLength="54" x="417" y="1147.0669">contains</text><!--MD5=[1b84a4271cc0a4ec67d792a1624162ab]
@startuml CppClassDiagram
skinparam BackgroundColor #AliceBlue

skinparam class {
  BackgroundColor PaleGreen
  BorderColor DarkGreen
  ArrowColor DarkSlateGray
}

package "Client" {
  class Player {
    + std::string username
    + std::string currentRoom
    - -
    + void sendCommand(const std::string& command)
    + void move(const std::string& direction)
    + void interact(const std::string& target)
    + void inspect(const std::string& object)
    + void manageInventory(const std::string& action, const std::string& item)
    + void requestHelp()
    + void lookAround()
    + std::string joinChatRoom()

  }
}

package "Server" {
  class GameServer {
    + GameManager gameLogic
    + std::unordered_map<std::string, std::thread> clientThreads
    - -
    + void handlePlayerConnect(const std::string& username)
  }

  class GameManager {
    + std::vector<Room> roomTemplates
    + std::unordered_map<std::string, PlayerSession> players
    - -
    + void initializeGame()
    + void movePlayer(PlayerSession& session, const std::string& direction)
    + std::string handleAction(PlayerSession& session, const std::string& action, const std::string& target)
    + std::string getHint(PlayerSession& session)
    + std::string getStatus(PlayerSession& session)
    + std::string getChatTopic(PlayerSession& session)

  }

  class PlayerSession {
    + std::string username
    + Room personalRoom
    + std::chrono::system_clock::time_point lastActivityTime
    - -
    + std::string processCommand(const std::string& command)
    + std::string getHint()
    + std::string getStatus()
    + std::string executeAction(const std::string& action, const std::string& target)
  }

  class Room {
    + std::string name
    + std::string description
    + std::vector<Puzzle> puzzles
    + std::vector<Item> items
    + std::vector<std::string> connectedPlayers
    - -
    + std::string describeRoom(const PlayerSession& session)
    + std::string interact(PlayerSession& session, const std::string& action)
  }

  class Puzzle {
    + std::string name
    + std::string description
    + std::string solution
    + bool isSolved
    - -
    + bool attemptSolution(const std::string& input)
    + std::string getClue()
  }

  class Item {
    + std::string name
    + std::string description
    + bool isUsable
    - -
    + std::string use()
  }
}

Player - -o GameServer : interacts with
GameServer - -* GameManager : uses
GameManager - -* Room : template for
GameManager - -* PlayerSession : manages
PlayerSession - -* Room : owns
Room - -* Puzzle : contains
Room - -* Item : contains

@enduml

PlantUML version 1.2020.02(Sun Mar 01 11:22:07 CET 2020)
(GPL source distribution)
Java Runtime: OpenJDK Runtime Environment
JVM: OpenJDK 64-Bit Server VM
Java Version: 21.0.6+7-Ubuntu-124.04.1
Operating System: Linux
Default Encoding: UTF-8
Language: en
Country: null
--></g></svg>