<?xml version="1.0" encoding="UTF-8" standalone="no"?><svg xmlns="http://www.w3.org/2000/svg" xmlns:xlink="http://www.w3.org/1999/xlink" contentScriptType="application/ecmascript" contentStyleType="text/css" height="882px" preserveAspectRatio="none" style="width:1289px;height:882px;background:#F0F8FF;" version="1.1" viewBox="0 0 1289 882" width="1289px" zoomAndPan="magnify"><defs><filter height="300%" id="f1ft43rnn0fo0y" width="300%" x="-1" y="-1"><feGaussianBlur result="blurOut" stdDeviation="2.0"/><feColorMatrix in="blurOut" result="blurOut2" type="matrix" values="0 0 0 0 0 0 0 0 0 0 0 0 0 0 0 0 0 0 .4 0"/><feOffset dx="4.0" dy="4.0" in="blurOut2" result="blurOut3"/><feBlend in="SourceGraphic" in2="blurOut3" mode="normal"/></filter></defs><g><!--MD5=[979da56a7f83e2393dc758167ae295d0]
cluster Server--><polygon fill="#F0F8FF" filter="url(#f1ft43rnn0fo0y)" points="22,24,81,24,88,46.2969,1267,46.2969,1267,870,22,870,22,24" style="stroke: #000000; stroke-width: 1.5;"/><line style="stroke: #000000; stroke-width: 1.5;" x1="22" x2="88" y1="46.2969" y2="46.2969"/><text fill="#000000" font-family="sans-serif" font-size="14" font-weight="bold" lengthAdjust="spacingAndGlyphs" textLength="53" x="26" y="38.9951">Server</text><!--MD5=[ebecb9917226677787fac7e9a2731304]
class GameManager--><rect fill="#98FB98" filter="url(#f1ft43rnn0fo0y)" height="112.0234" id="GameManager" style="stroke: #006400; stroke-width: 1.5;" width="521" x="321.5" y="59"/><ellipse cx="532.25" cy="75" fill="#ADD1B2" rx="11" ry="11" style="stroke: #006400; stroke-width: 1.0;"/><path d="M535.2188,80.6406 Q534.6406,80.9375 534,81.0781 Q533.3594,81.2344 532.6563,81.2344 Q530.1563,81.2344 528.8281,79.5938 Q527.5156,77.9375 527.5156,74.8125 Q527.5156,71.6875 528.8281,70.0313 Q530.1563,68.375 532.6563,68.375 Q533.3594,68.375 534,68.5313 Q534.6563,68.6875 535.2188,68.9844 L535.2188,71.7031 Q534.5938,71.125 534,70.8594 Q533.4063,70.5781 532.7813,70.5781 Q531.4375,70.5781 530.75,71.6563 Q530.0625,72.7188 530.0625,74.8125 Q530.0625,76.9063 530.75,77.9844 Q531.4375,79.0469 532.7813,79.0469 Q533.4063,79.0469 534,78.7813 Q534.5938,78.5 535.2188,77.9219 L535.2188,80.6406 Z "/><text fill="#000000" font-family="sans-serif" font-size="12" lengthAdjust="spacingAndGlyphs" textLength="91" x="552.75" y="79.1543">GameManager</text><line style="stroke: #006400; stroke-width: 1.5;" x1="322.5" x2="841.5" y1="91" y2="91"/><ellipse cx="332.5" cy="102" fill="#84BE84" rx="3" ry="3" style="stroke: #038048; stroke-width: 1.0;"/><text fill="#000000" font-family="sans-serif" font-size="11" lengthAdjust="spacingAndGlyphs" textLength="114" x="341.5" y="105.2104">void initializeGame()</text><ellipse cx="332.5" cy="114.8047" fill="#84BE84" rx="3" ry="3" style="stroke: #038048; stroke-width: 1.0;"/><text fill="#000000" font-family="sans-serif" font-size="11" lengthAdjust="spacingAndGlyphs" textLength="326" x="341.5" y="118.0151">std::string handleMessage(const std::string &amp;username)</text><ellipse cx="332.5" cy="127.6094" fill="#84BE84" rx="3" ry="3" style="stroke: #038048; stroke-width: 1.0;"/><text fill="#000000" font-family="sans-serif" font-size="11" lengthAdjust="spacingAndGlyphs" textLength="495" x="341.5" y="130.8198">std::string handleMessage(const std::string &amp;username, const std::string &amp;message)</text><line style="stroke: #006400; stroke-width: 1.0;" x1="322.5" x2="841.5" y1="137.4141" y2="137.4141"/><rect fill="none" height="6" style="stroke: #C82930; stroke-width: 1.0;" width="6" x="329.5" y="145.4141"/><text fill="#000000" font-family="sans-serif" font-size="11" lengthAdjust="spacingAndGlyphs" textLength="205" x="341.5" y="151.6245">std::vector&lt;Room&gt; roomTemplates</text><rect fill="none" height="6" style="stroke: #C82930; stroke-width: 1.0;" width="6" x="329.5" y="158.2188"/><text fill="#000000" font-family="sans-serif" font-size="11" lengthAdjust="spacingAndGlyphs" textLength="328" x="341.5" y="164.4292">std::unordered_map&lt;std::string, PlayerSession&gt; players</text><!--MD5=[cbc00b7300829a47947ebd24d4d70cd8]
class PlayerSession--><rect fill="#98FB98" filter="url(#f1ft43rnn0fo0y)" height="176.0469" id="PlayerSession" style="stroke: #006400; stroke-width: 1.5;" width="483" x="123.5" y="248"/><ellipse cx="317.25" cy="264" fill="#ADD1B2" rx="11" ry="11" style="stroke: #006400; stroke-width: 1.0;"/><path d="M320.2188,269.6406 Q319.6406,269.9375 319,270.0781 Q318.3594,270.2344 317.6563,270.2344 Q315.1563,270.2344 313.8281,268.5938 Q312.5156,266.9375 312.5156,263.8125 Q312.5156,260.6875 313.8281,259.0313 Q315.1563,257.375 317.6563,257.375 Q318.3594,257.375 319,257.5313 Q319.6563,257.6875 320.2188,257.9844 L320.2188,260.7031 Q319.5938,260.125 319,259.8594 Q318.4063,259.5781 317.7813,259.5781 Q316.4375,259.5781 315.75,260.6563 Q315.0625,261.7188 315.0625,263.8125 Q315.0625,265.9063 315.75,266.9844 Q316.4375,268.0469 317.7813,268.0469 Q318.4063,268.0469 319,267.7813 Q319.5938,267.5 320.2188,266.9219 L320.2188,269.6406 Z "/><text fill="#000000" font-family="sans-serif" font-size="12" lengthAdjust="spacingAndGlyphs" textLength="87" x="337.75" y="268.1543">PlayerSession</text><line style="stroke: #006400; stroke-width: 1.5;" x1="124.5" x2="605.5" y1="280" y2="280"/><ellipse cx="134.5" cy="291" fill="#84BE84" rx="3" ry="3" style="stroke: #038048; stroke-width: 1.0;"/><text fill="#000000" font-family="sans-serif" font-size="11" lengthAdjust="spacingAndGlyphs" textLength="457" x="143.5" y="294.2104">«constructor» PlayerSession(const std::string&amp; username, const Room&amp; room)</text><ellipse cx="134.5" cy="303.8047" fill="#84BE84" rx="3" ry="3" style="stroke: #038048; stroke-width: 1.0;"/><text fill="#000000" font-family="sans-serif" font-size="11" lengthAdjust="spacingAndGlyphs" textLength="339" x="143.5" y="307.0151">std::string processCommand(const std::string&amp; command)</text><ellipse cx="134.5" cy="316.6094" fill="#84BE84" rx="3" ry="3" style="stroke: #038048; stroke-width: 1.0;"/><text fill="#000000" font-family="sans-serif" font-size="11" lengthAdjust="spacingAndGlyphs" textLength="111" x="143.5" y="319.8198">std::string getHint()</text><ellipse cx="134.5" cy="329.4141" fill="#84BE84" rx="3" ry="3" style="stroke: #038048; stroke-width: 1.0;"/><text fill="#000000" font-family="sans-serif" font-size="11" lengthAdjust="spacingAndGlyphs" textLength="126" x="143.5" y="332.6245">std::string getStatus()</text><ellipse cx="134.5" cy="342.2188" fill="#84BE84" rx="3" ry="3" style="stroke: #038048; stroke-width: 1.0;"/><text fill="#000000" font-family="sans-serif" font-size="11" lengthAdjust="spacingAndGlyphs" textLength="441" x="143.5" y="345.4292">std::string executeAction(const std::string&amp; action, const std::string&amp; target)</text><ellipse cx="134.5" cy="355.0234" fill="#84BE84" rx="3" ry="3" style="stroke: #038048; stroke-width: 1.0;"/><text fill="#000000" font-family="sans-serif" font-size="11" lengthAdjust="spacingAndGlyphs" textLength="259" x="143.5" y="358.2339">std::string move(const std::string&amp; direction)</text><ellipse cx="134.5" cy="367.8281" fill="#84BE84" rx="3" ry="3" style="stroke: #038048; stroke-width: 1.0;"/><text fill="#000000" font-family="sans-serif" font-size="11" lengthAdjust="spacingAndGlyphs" textLength="145" x="143.5" y="371.0386">std::string getChatTopic()</text><line style="stroke: #006400; stroke-width: 1.0;" x1="124.5" x2="605.5" y1="377.6328" y2="377.6328"/><rect fill="none" height="6" style="stroke: #C82930; stroke-width: 1.0;" width="6" x="131.5" y="385.6328"/><text fill="#000000" font-family="sans-serif" font-size="11" lengthAdjust="spacingAndGlyphs" textLength="121" x="143.5" y="391.8433">std::string username</text><rect fill="none" height="6" style="stroke: #C82930; stroke-width: 1.0;" width="6" x="131.5" y="398.4375"/><text fill="#000000" font-family="sans-serif" font-size="11" lengthAdjust="spacingAndGlyphs" textLength="118" x="143.5" y="404.6479">Room personalRoom</text><rect fill="none" height="6" style="stroke: #C82930; stroke-width: 1.0;" width="6" x="131.5" y="411.2422"/><text fill="#000000" font-family="sans-serif" font-size="11" lengthAdjust="spacingAndGlyphs" textLength="308" x="143.5" y="417.4526">std::chrono::system_clock::time_point lastActivityTime</text><!--MD5=[d218c48b946d362ff1ecd879cabebcad]
class Room--><rect fill="#98FB98" filter="url(#f1ft43rnn0fo0y)" height="137.6328" id="Room" style="stroke: #006400; stroke-width: 1.5;" width="468" x="262" y="501"/><ellipse cx="474.25" cy="517" fill="#ADD1B2" rx="11" ry="11" style="stroke: #006400; stroke-width: 1.0;"/><path d="M477.2188,522.6406 Q476.6406,522.9375 476,523.0781 Q475.3594,523.2344 474.6563,523.2344 Q472.1563,523.2344 470.8281,521.5938 Q469.5156,519.9375 469.5156,516.8125 Q469.5156,513.6875 470.8281,512.0313 Q472.1563,510.375 474.6563,510.375 Q475.3594,510.375 476,510.5313 Q476.6563,510.6875 477.2188,510.9844 L477.2188,513.7031 Q476.5938,513.125 476,512.8594 Q475.4063,512.5781 474.7813,512.5781 Q473.4375,512.5781 472.75,513.6563 Q472.0625,514.7188 472.0625,516.8125 Q472.0625,518.9063 472.75,519.9844 Q473.4375,521.0469 474.7813,521.0469 Q475.4063,521.0469 476,520.7813 Q476.5938,520.5 477.2188,519.9219 L477.2188,522.6406 Z "/><text fill="#000000" font-family="sans-serif" font-size="12" lengthAdjust="spacingAndGlyphs" textLength="35" x="494.75" y="521.1543">Room</text><line style="stroke: #006400; stroke-width: 1.5;" x1="263" x2="729" y1="533" y2="533"/><ellipse cx="273" cy="544" fill="#84BE84" rx="3" ry="3" style="stroke: #038048; stroke-width: 1.0;"/><text fill="#000000" font-family="sans-serif" font-size="11" lengthAdjust="spacingAndGlyphs" textLength="442" x="282" y="547.2104">«constructor» Room(const std::string&amp; name, const std::string&amp; description)</text><ellipse cx="273" cy="556.8047" fill="#84BE84" rx="3" ry="3" style="stroke: #038048; stroke-width: 1.0;"/><text fill="#000000" font-family="sans-serif" font-size="11" lengthAdjust="spacingAndGlyphs" textLength="327" x="282" y="560.0151">std::string describeRoom(const PlayerSession&amp; session)</text><ellipse cx="273" cy="569.6094" fill="#84BE84" rx="3" ry="3" style="stroke: #038048; stroke-width: 1.0;"/><text fill="#000000" font-family="sans-serif" font-size="11" lengthAdjust="spacingAndGlyphs" textLength="404" x="282" y="572.8198">std::string interact(PlayerSession&amp; session, const std::string&amp; action)</text><line style="stroke: #006400; stroke-width: 1.0;" x1="263" x2="729" y1="579.4141" y2="579.4141"/><rect fill="none" height="6" style="stroke: #C82930; stroke-width: 1.0;" width="6" x="270" y="587.4141"/><text fill="#000000" font-family="sans-serif" font-size="11" lengthAdjust="spacingAndGlyphs" textLength="95" x="282" y="593.6245">std::string name</text><rect fill="none" height="6" style="stroke: #C82930; stroke-width: 1.0;" width="6" x="270" y="600.2188"/><text fill="#000000" font-family="sans-serif" font-size="11" lengthAdjust="spacingAndGlyphs" textLength="126" x="282" y="606.4292">std::string description</text><rect fill="none" height="6" style="stroke: #C82930; stroke-width: 1.0;" width="6" x="270" y="613.0234"/><text fill="#000000" font-family="sans-serif" font-size="11" lengthAdjust="spacingAndGlyphs" textLength="158" x="282" y="619.2339">std::vector&lt;Puzzle&gt; puzzles</text><rect fill="none" height="6" style="stroke: #C82930; stroke-width: 1.0;" width="6" x="270" y="625.8281"/><text fill="#000000" font-family="sans-serif" font-size="11" lengthAdjust="spacingAndGlyphs" textLength="140" x="282" y="632.0386">std::vector&lt;Item&gt; items</text><!--MD5=[bdb67d807b54310fa85dc9d3c5aad932]
class Puzzle--><rect fill="#98FB98" filter="url(#f1ft43rnn0fo0y)" height="137.6328" id="Puzzle" style="stroke: #006400; stroke-width: 1.5;" width="631" x="38.5" y="716"/><ellipse cx="331.25" cy="732" fill="#ADD1B2" rx="11" ry="11" style="stroke: #006400; stroke-width: 1.0;"/><path d="M334.2188,737.6406 Q333.6406,737.9375 333,738.0781 Q332.3594,738.2344 331.6563,738.2344 Q329.1563,738.2344 327.8281,736.5938 Q326.5156,734.9375 326.5156,731.8125 Q326.5156,728.6875 327.8281,727.0313 Q329.1563,725.375 331.6563,725.375 Q332.3594,725.375 333,725.5313 Q333.6563,725.6875 334.2188,725.9844 L334.2188,728.7031 Q333.5938,728.125 333,727.8594 Q332.4063,727.5781 331.7813,727.5781 Q330.4375,727.5781 329.75,728.6563 Q329.0625,729.7188 329.0625,731.8125 Q329.0625,733.9063 329.75,734.9844 Q330.4375,736.0469 331.7813,736.0469 Q332.4063,736.0469 333,735.7813 Q333.5938,735.5 334.2188,734.9219 L334.2188,737.6406 Z "/><text fill="#000000" font-family="sans-serif" font-size="12" lengthAdjust="spacingAndGlyphs" textLength="37" x="351.75" y="736.1543">Puzzle</text><line style="stroke: #006400; stroke-width: 1.5;" x1="39.5" x2="668.5" y1="748" y2="748"/><ellipse cx="49.5" cy="759" fill="#84BE84" rx="3" ry="3" style="stroke: #038048; stroke-width: 1.0;"/><text fill="#000000" font-family="sans-serif" font-size="11" lengthAdjust="spacingAndGlyphs" textLength="605" x="58.5" y="762.2104">«constructor» Puzzle(const std::string&amp; name, const std::string&amp; description, const std::string&amp; solution)</text><ellipse cx="49.5" cy="771.8047" fill="#84BE84" rx="3" ry="3" style="stroke: #038048; stroke-width: 1.0;"/><text fill="#000000" font-family="sans-serif" font-size="11" lengthAdjust="spacingAndGlyphs" textLength="262" x="58.5" y="775.0151">bool attemptSolution(const std::string&amp; input)</text><ellipse cx="49.5" cy="784.6094" fill="#84BE84" rx="3" ry="3" style="stroke: #038048; stroke-width: 1.0;"/><text fill="#000000" font-family="sans-serif" font-size="11" lengthAdjust="spacingAndGlyphs" textLength="114" x="58.5" y="787.8198">std::string getClue()</text><line style="stroke: #006400; stroke-width: 1.0;" x1="39.5" x2="668.5" y1="794.4141" y2="794.4141"/><rect fill="none" height="6" style="stroke: #C82930; stroke-width: 1.0;" width="6" x="46.5" y="802.4141"/><text fill="#000000" font-family="sans-serif" font-size="11" lengthAdjust="spacingAndGlyphs" textLength="95" x="58.5" y="808.6245">std::string name</text><rect fill="none" height="6" style="stroke: #C82930; stroke-width: 1.0;" width="6" x="46.5" y="815.2188"/><text fill="#000000" font-family="sans-serif" font-size="11" lengthAdjust="spacingAndGlyphs" textLength="126" x="58.5" y="821.4292">std::string description</text><rect fill="none" height="6" style="stroke: #C82930; stroke-width: 1.0;" width="6" x="46.5" y="828.0234"/><text fill="#000000" font-family="sans-serif" font-size="11" lengthAdjust="spacingAndGlyphs" textLength="108" x="58.5" y="834.2339">std::string solution</text><rect fill="none" height="6" style="stroke: #C82930; stroke-width: 1.0;" width="6" x="46.5" y="840.8281"/><text fill="#000000" font-family="sans-serif" font-size="11" lengthAdjust="spacingAndGlyphs" textLength="76" x="58.5" y="847.0386">bool isSolved</text><!--MD5=[44a1b4afaef76c16e6c9ec4990ad0c8d]
class Item--><rect fill="#98FB98" filter="url(#f1ft43rnn0fo0y)" height="112.0234" id="Item" style="stroke: #006400; stroke-width: 1.5;" width="546" x="705" y="729"/><ellipse cx="960.25" cy="745" fill="#ADD1B2" rx="11" ry="11" style="stroke: #006400; stroke-width: 1.0;"/><path d="M963.2188,750.6406 Q962.6406,750.9375 962,751.0781 Q961.3594,751.2344 960.6563,751.2344 Q958.1563,751.2344 956.8281,749.5938 Q955.5156,747.9375 955.5156,744.8125 Q955.5156,741.6875 956.8281,740.0313 Q958.1563,738.375 960.6563,738.375 Q961.3594,738.375 962,738.5313 Q962.6563,738.6875 963.2188,738.9844 L963.2188,741.7031 Q962.5938,741.125 962,740.8594 Q961.4063,740.5781 960.7813,740.5781 Q959.4375,740.5781 958.75,741.6563 Q958.0625,742.7188 958.0625,744.8125 Q958.0625,746.9063 958.75,747.9844 Q959.4375,749.0469 960.7813,749.0469 Q961.4063,749.0469 962,748.7813 Q962.5938,748.5 963.2188,747.9219 L963.2188,750.6406 Z "/><text fill="#000000" font-family="sans-serif" font-size="12" lengthAdjust="spacingAndGlyphs" textLength="27" x="980.75" y="749.1543">Item</text><line style="stroke: #006400; stroke-width: 1.5;" x1="706" x2="1250" y1="761" y2="761"/><ellipse cx="716" cy="772" fill="#84BE84" rx="3" ry="3" style="stroke: #038048; stroke-width: 1.0;"/><text fill="#000000" font-family="sans-serif" font-size="11" lengthAdjust="spacingAndGlyphs" textLength="520" x="725" y="775.2104">«constructor» Item(const std::string&amp; name, const std::string&amp; description, bool isUsable)</text><ellipse cx="716" cy="784.8047" fill="#84BE84" rx="3" ry="3" style="stroke: #038048; stroke-width: 1.0;"/><text fill="#000000" font-family="sans-serif" font-size="11" lengthAdjust="spacingAndGlyphs" textLength="92" x="725" y="788.0151">std::string use()</text><line style="stroke: #006400; stroke-width: 1.0;" x1="706" x2="1250" y1="794.6094" y2="794.6094"/><rect fill="none" height="6" style="stroke: #C82930; stroke-width: 1.0;" width="6" x="713" y="802.6094"/><text fill="#000000" font-family="sans-serif" font-size="11" lengthAdjust="spacingAndGlyphs" textLength="95" x="725" y="808.8198">std::string name</text><rect fill="none" height="6" style="stroke: #C82930; stroke-width: 1.0;" width="6" x="713" y="815.4141"/><text fill="#000000" font-family="sans-serif" font-size="11" lengthAdjust="spacingAndGlyphs" textLength="126" x="725" y="821.6245">std::string description</text><rect fill="none" height="6" style="stroke: #C82930; stroke-width: 1.0;" width="6" x="713" y="828.2188"/><text fill="#000000" font-family="sans-serif" font-size="11" lengthAdjust="spacingAndGlyphs" textLength="77" x="725" y="834.4292">bool isUsable</text><!--MD5=[2b41c13797bc6e9f52e1849536d63be2]
link GameManager to Room--><path d="M605.26,171.23 C628.3,234.32 655.88,339.7 624,424 C614.85,448.18 599.63,470.93 582.81,490.93 " fill="none" id="GameManager-&gt;Room" style="stroke: #2F4F4F; stroke-width: 1.0;"/><polygon fill="#2F4F4F" points="574.18,500.82,581.1408,498.9364,582.0793,491.7866,575.1185,493.6702,574.18,500.82" style="stroke: #2F4F4F; stroke-width: 1.0;"/><text fill="#000000" font-family="sans-serif" font-size="13" lengthAdjust="spacingAndGlyphs" textLength="79" x="639" y="340.5669">template for</text><!--MD5=[00a5fa2ff856ff45392a5a245010e521]
link GameManager to PlayerSession--><path d="M527.24,171.26 C507.05,191.64 483.53,215.38 460.77,238.35 " fill="none" id="GameManager-&gt;PlayerSession" style="stroke: #2F4F4F; stroke-width: 1.0;"/><polygon fill="#2F4F4F" points="451.42,247.79,458.4833,246.3373,459.859,239.2587,452.7957,240.7113,451.42,247.79" style="stroke: #2F4F4F; stroke-width: 1.0;"/><text fill="#000000" font-family="sans-serif" font-size="13" lengthAdjust="spacingAndGlyphs" textLength="60" x="493" y="214.0669">manages</text><!--MD5=[e209ed0fc6d056a0e21ef3b58405623b]
link PlayerSession to Room--><path d="M414.15,424.05 C426.22,445.42 439.08,468.19 450.94,489.2 " fill="none" id="PlayerSession-&gt;Room" style="stroke: #2F4F4F; stroke-width: 1.0;"/><polygon fill="#2F4F4F" points="457.42,500.68,457.9544,493.4887,451.5218,490.2296,450.9874,497.4208,457.42,500.68" style="stroke: #2F4F4F; stroke-width: 1.0;"/><text fill="#000000" font-family="sans-serif" font-size="13" lengthAdjust="spacingAndGlyphs" textLength="32" x="439" y="467.0669">owns</text><!--MD5=[83663bc9e1411d1c90708c375f713435]
link Room to Puzzle--><path d="M450.48,639.27 C436.6,660.1 421.21,683.18 406.89,704.67 " fill="none" id="Room-&gt;Puzzle" style="stroke: #2F4F4F; stroke-width: 1.0;"/><polygon fill="#2F4F4F" points="399.5,715.75,406.1572,712.9785,406.1594,705.7674,399.5022,708.5389,399.5,715.75" style="stroke: #2F4F4F; stroke-width: 1.0;"/><text fill="#000000" font-family="sans-serif" font-size="13" lengthAdjust="spacingAndGlyphs" textLength="54" x="430" y="682.0669">contains</text><!--MD5=[7dfd4f87ecc419a87308a4a2c7dec4bf]
link Room to Item--><path d="M650.16,639.13 C711.62,666.29 781.78,697.29 841.37,723.62 " fill="none" id="Room-&gt;Item" style="stroke: #2F4F4F; stroke-width: 1.0;"/><polygon fill="#2F4F4F" points="853.53,729,849.6547,722.9187,842.5507,724.157,846.426,730.2383,853.53,729" style="stroke: #2F4F4F; stroke-width: 1.0;"/><text fill="#000000" font-family="sans-serif" font-size="13" lengthAdjust="spacingAndGlyphs" textLength="54" x="752" y="682.0669">contains</text><!--MD5=[ca15bd22daa533c485cdec971f41365d]
@startuml CppClassDiagram
skinparam BackgroundColor #AliceBlue

skinparam class {
  BackgroundColor PaleGreen
  BorderColor DarkGreen
  ArrowColor DarkSlateGray
}

package "Server" {
  class GameManager {
    + void initializeGame()
    + std::string handleMessage(const std::string &username)
    + std::string handleMessage(const std::string &username, const std::string &message)
    - -
    - std::vector<Room> roomTemplates
    - std::unordered_map<std::string, PlayerSession> players
  }

  class PlayerSession {
    + <<constructor>> PlayerSession(const std::string& username, const Room& room)
    + std::string processCommand(const std::string& command)
    + std::string getHint()
    + std::string getStatus()
    + std::string executeAction(const std::string& action, const std::string& target)
    + std::string move(const std::string& direction)
    + std::string getChatTopic()
    - -
    - std::string username
    - Room personalRoom
    - std::chrono::system_clock::time_point lastActivityTime
  }

  class Room {
    + <<constructor>> Room(const std::string& name, const std::string& description)
    + std::string describeRoom(const PlayerSession& session)
    + std::string interact(PlayerSession& session, const std::string& action)
    - -
    - std::string name
    - std::string description
    - std::vector<Puzzle> puzzles
    - std::vector<Item> items
  }

  class Puzzle {
    + <<constructor>> Puzzle(const std::string& name, const std::string& description, const std::string& solution)
    + bool attemptSolution(const std::string& input)
    + std::string getClue()
    - -
    - std::string name
    - std::string description
    - std::string solution
    - bool isSolved
  }

  class Item {
    + <<constructor>> Item(const std::string& name, const std::string& description, bool isUsable)
    + std::string use()
    - -
    - std::string name
    - std::string description
    - bool isUsable
  }
}

GameManager - -* Room : template for
GameManager - -* PlayerSession : manages
PlayerSession - -* Room : owns
Room - -* Puzzle : contains
Room - -* Item : contains
@enduml

PlantUML version 1.2020.02(Sun Mar 01 11:22:07 CET 2020)
(GPL source distribution)
Java Runtime: OpenJDK Runtime Environment
JVM: OpenJDK 64-Bit Server VM
Java Version: 21.0.7+6-Ubuntu-0ubuntu124.04
Operating System: Linux
Default Encoding: UTF-8
Language: en
Country: null
--></g></svg>