<?xml version="1.0" encoding="UTF-8" standalone="no"?><svg xmlns="http://www.w3.org/2000/svg" xmlns:xlink="http://www.w3.org/1999/xlink" contentScriptType="application/ecmascript" contentStyleType="text/css" height="532px" preserveAspectRatio="none" style="width:575px;height:532px;background:#808080;" version="1.1" viewBox="0 0 575 532" width="575px" zoomAndPan="magnify"><defs><filter height="300%" id="fviwysgd3fzqj" width="300%" x="-1" y="-1"><feGaussianBlur result="blurOut" stdDeviation="2.0"/><feColorMatrix in="blurOut" result="blurOut2" type="matrix" values="0 0 0 0 0 0 0 0 0 0 0 0 0 0 0 0 0 0 .4 0"/><feOffset dx="4.0" dy="4.0" in="blurOut2" result="blurOut3"/><feBlend in="SourceGraphic" in2="blurOut3" mode="normal"/></filter></defs><g><rect fill="#DDDDDD" height="517.4531" style="stroke: #A80036; stroke-width: 1.0;" width="85" x="4" y="4"/><text fill="#000000" font-family="sans-serif" font-size="13" font-weight="bold" lengthAdjust="spacingAndGlyphs" textLength="79" x="7" y="16.0669">Client_App</text><rect fill="#DDDDDD" height="517.4531" style="stroke: #A80036; stroke-width: 1.0;" width="122" x="381.5" y="4"/><text fill="#000000" font-family="sans-serif" font-size="13" font-weight="bold" lengthAdjust="spacingAndGlyphs" textLength="84" x="400.5" y="16.0669">Server_App</text><rect fill="#FFFFFF" filter="url(#fviwysgd3fzqj)" height="346.4609" style="stroke: #A80036; stroke-width: 1.0;" width="10" x="41.5" y="89.5625"/><rect fill="#FFFFFF" filter="url(#fviwysgd3fzqj)" height="405.7266" style="stroke: #A80036; stroke-width: 1.0;" width="10" x="239.5" y="68.4297"/><rect fill="#FFFFFF" filter="url(#fviwysgd3fzqj)" height="384.5938" style="stroke: #A80036; stroke-width: 1.0;" width="10" x="437.5" y="89.5625"/><line style="stroke: #A80036; stroke-width: 1.0; stroke-dasharray: 5.0,5.0;" x1="46" x2="46" y1="58.4297" y2="483.1563"/><line style="stroke: #A80036; stroke-width: 1.0; stroke-dasharray: 5.0,5.0;" x1="244.5" x2="244.5" y1="58.4297" y2="483.1563"/><line style="stroke: #A80036; stroke-width: 1.0; stroke-dasharray: 5.0,5.0;" x1="442.5" x2="442.5" y1="58.4297" y2="483.1563"/><rect fill="#FEFECE" filter="url(#fviwysgd3fzqj)" height="30.2969" style="stroke: #A80036; stroke-width: 1.5;" width="53" x="18" y="23.1328"/><text fill="#000000" font-family="sans-serif" font-size="14" lengthAdjust="spacingAndGlyphs" textLength="39" x="25" y="43.1279">Client</text><rect fill="#FEFECE" filter="url(#fviwysgd3fzqj)" height="30.2969" style="stroke: #A80036; stroke-width: 1.5;" width="53" x="18" y="482.1563"/><text fill="#000000" font-family="sans-serif" font-size="14" lengthAdjust="spacingAndGlyphs" textLength="39" x="25" y="502.1514">Client</text><rect fill="#FEFECE" filter="url(#fviwysgd3fzqj)" height="30.2969" style="stroke: #A80036; stroke-width: 1.5;" width="118" x="183.5" y="23.1328"/><text fill="#000000" font-family="sans-serif" font-size="14" lengthAdjust="spacingAndGlyphs" textLength="104" x="190.5" y="43.1279">ZeroMQ Server</text><rect fill="#FEFECE" filter="url(#fviwysgd3fzqj)" height="30.2969" style="stroke: #A80036; stroke-width: 1.5;" width="118" x="183.5" y="482.1563"/><text fill="#000000" font-family="sans-serif" font-size="14" lengthAdjust="spacingAndGlyphs" textLength="104" x="190.5" y="502.1514">ZeroMQ Server</text><rect fill="#FEFECE" filter="url(#fviwysgd3fzqj)" height="30.2969" style="stroke: #A80036; stroke-width: 1.5;" width="110" x="385.5" y="23.1328"/><text fill="#000000" font-family="sans-serif" font-size="14" lengthAdjust="spacingAndGlyphs" textLength="96" x="392.5" y="43.1279">Event Handler</text><rect fill="#FEFECE" filter="url(#fviwysgd3fzqj)" height="30.2969" style="stroke: #A80036; stroke-width: 1.5;" width="110" x="385.5" y="482.1563"/><text fill="#000000" font-family="sans-serif" font-size="14" lengthAdjust="spacingAndGlyphs" textLength="96" x="392.5" y="502.1514">Event Handler</text><rect fill="#FFFFFF" filter="url(#fviwysgd3fzqj)" height="346.4609" style="stroke: #A80036; stroke-width: 1.0;" width="10" x="41.5" y="89.5625"/><rect fill="#FFFFFF" filter="url(#fviwysgd3fzqj)" height="405.7266" style="stroke: #A80036; stroke-width: 1.0;" width="10" x="239.5" y="68.4297"/><rect fill="#FFFFFF" filter="url(#fviwysgd3fzqj)" height="384.5938" style="stroke: #A80036; stroke-width: 1.0;" width="10" x="437.5" y="89.5625"/><polygon fill="#008000" points="260.5,85.5625,250.5,89.5625,260.5,93.5625,256.5,89.5625" style="stroke: #008000; stroke-width: 1.0;"/><line style="stroke: #008000; stroke-width: 1.0; stroke-dasharray: 2.0,2.0;" x1="254.5" x2="436.5" y1="89.5625" y2="89.5625"/><text fill="#000000" font-family="sans-serif" font-size="13" lengthAdjust="spacingAndGlyphs" textLength="38" x="266.5" y="84.4966">Listen</text><polygon fill="#A80036" points="227.5,114.6953,237.5,118.6953,227.5,122.6953,231.5,118.6953" style="stroke: #A80036; stroke-width: 1.0;"/><line style="stroke: #A80036; stroke-width: 1.0;" x1="51.5" x2="233.5" y1="118.6953" y2="118.6953"/><text fill="#000000" font-family="sans-serif" font-size="13" lengthAdjust="spacingAndGlyphs" textLength="93" x="58.5" y="113.6294">Client Connect</text><polygon fill="#A80036" points="425.5,143.8281,435.5,147.8281,425.5,151.8281,429.5,147.8281" style="stroke: #A80036; stroke-width: 1.0;"/><line style="stroke: #A80036; stroke-width: 1.0;" x1="249.5" x2="431.5" y1="147.8281" y2="147.8281"/><text fill="#000000" font-family="sans-serif" font-size="13" lengthAdjust="spacingAndGlyphs" textLength="154" x="256.5" y="142.7622">(forward) Client Connect</text><line style="stroke: #A80036; stroke-width: 1.0;" x1="447.5" x2="489.5" y1="176.9609" y2="176.9609"/><line style="stroke: #A80036; stroke-width: 1.0;" x1="489.5" x2="489.5" y1="176.9609" y2="189.9609"/><line style="stroke: #A80036; stroke-width: 1.0;" x1="448.5" x2="489.5" y1="189.9609" y2="189.9609"/><polygon fill="#A80036" points="458.5,185.9609,448.5,189.9609,458.5,193.9609,454.5,189.9609" style="stroke: #A80036; stroke-width: 1.0;"/><text fill="#000000" font-family="sans-serif" font-size="13" lengthAdjust="spacingAndGlyphs" textLength="109" x="454.5" y="171.895">Check availability</text><polygon fill="#A80036" points="260.5,215.0938,250.5,219.0938,260.5,223.0938,256.5,219.0938" style="stroke: #A80036; stroke-width: 1.0;"/><line style="stroke: #A80036; stroke-width: 1.0;" x1="254.5" x2="436.5" y1="219.0938" y2="219.0938"/><text fill="#000000" font-family="sans-serif" font-size="13" lengthAdjust="spacingAndGlyphs" textLength="26" x="266.5" y="214.0278">ACK</text><polygon fill="#A80036" points="62.5,244.2266,52.5,248.2266,62.5,252.2266,58.5,248.2266" style="stroke: #A80036; stroke-width: 1.0;"/><line style="stroke: #A80036; stroke-width: 1.0;" x1="56.5" x2="238.5" y1="248.2266" y2="248.2266"/><text fill="#000000" font-family="sans-serif" font-size="13" lengthAdjust="spacingAndGlyphs" textLength="87" x="68.5" y="243.1606">(forward) ACK</text><polygon fill="#A80036" points="227.5,273.3594,237.5,277.3594,227.5,281.3594,231.5,277.3594" style="stroke: #A80036; stroke-width: 1.0;"/><line style="stroke: #A80036; stroke-width: 1.0;" x1="51.5" x2="233.5" y1="277.3594" y2="277.3594"/><text fill="#000000" font-family="sans-serif" font-size="13" lengthAdjust="spacingAndGlyphs" textLength="103" x="58.5" y="272.2935">Request Service</text><polygon fill="#A80036" points="425.5,302.4922,435.5,306.4922,425.5,310.4922,429.5,306.4922" style="stroke: #A80036; stroke-width: 1.0;"/><line style="stroke: #A80036; stroke-width: 1.0;" x1="249.5" x2="431.5" y1="306.4922" y2="306.4922"/><text fill="#000000" font-family="sans-serif" font-size="13" lengthAdjust="spacingAndGlyphs" textLength="164" x="256.5" y="301.4263">(forward) Request Service</text><line style="stroke: #A80036; stroke-width: 1.0;" x1="447.5" x2="489.5" y1="335.625" y2="335.625"/><line style="stroke: #A80036; stroke-width: 1.0;" x1="489.5" x2="489.5" y1="335.625" y2="348.625"/><line style="stroke: #A80036; stroke-width: 1.0;" x1="448.5" x2="489.5" y1="348.625" y2="348.625"/><polygon fill="#A80036" points="458.5,344.625,448.5,348.625,458.5,352.625,454.5,348.625" style="stroke: #A80036; stroke-width: 1.0;"/><text fill="#000000" font-family="sans-serif" font-size="13" lengthAdjust="spacingAndGlyphs" textLength="83" x="454.5" y="330.5591">Process Task</text><polygon fill="#A80036" points="260.5,373.7578,250.5,377.7578,260.5,381.7578,256.5,377.7578" style="stroke: #A80036; stroke-width: 1.0;"/><line style="stroke: #A80036; stroke-width: 1.0;" x1="254.5" x2="436.5" y1="377.7578" y2="377.7578"/><text fill="#000000" font-family="sans-serif" font-size="13" lengthAdjust="spacingAndGlyphs" textLength="93" x="266.5" y="372.6919">Return Service</text><polygon fill="#A80036" points="62.5,402.8906,52.5,406.8906,62.5,410.8906,58.5,406.8906" style="stroke: #A80036; stroke-width: 1.0;"/><line style="stroke: #A80036; stroke-width: 1.0;" x1="56.5" x2="238.5" y1="406.8906" y2="406.8906"/><text fill="#000000" font-family="sans-serif" font-size="13" lengthAdjust="spacingAndGlyphs" textLength="154" x="68.5" y="401.8247">(forward) Return Service</text><polygon fill="#A80036" points="227.5,432.0234,237.5,436.0234,227.5,440.0234,231.5,436.0234" style="stroke: #A80036; stroke-width: 1.0;"/><line style="stroke: #A80036; stroke-width: 1.0;" x1="46.5" x2="233.5" y1="436.0234" y2="436.0234"/><text fill="#000000" font-family="sans-serif" font-size="13" lengthAdjust="spacingAndGlyphs" textLength="75" x="53.5" y="430.9575">Client Close</text><polygon fill="#A80036" points="425.5,461.1563,435.5,465.1563,425.5,469.1563,429.5,465.1563" style="stroke: #A80036; stroke-width: 1.0;"/><line style="stroke: #A80036; stroke-width: 1.0;" x1="249.5" x2="431.5" y1="465.1563" y2="465.1563"/><text fill="#000000" font-family="sans-serif" font-size="13" lengthAdjust="spacingAndGlyphs" textLength="136" x="256.5" y="460.0903">(forward) Client Close</text><!--MD5=[d900bb7c32b5204ef9f081900f44048e]
@startuml SequenceDiagram
skinparam BackgroundColor #AliceBluegit

box Client_App
skinparam BackgroundColor grey
participant Client
end box
participant "ZeroMQ Server" as ZeroMQServer
box Server_App
skinparam BackgroundColor grey
participant "Event Handler" as Server
end box

activate ZeroMQServer

ZeroMQServer <- -[#green]- - Server : Listen
activate Server

activate Client
Client -> ZeroMQServer : Client Connect
ZeroMQServer -> Server : (forward) Client Connect
Server -> Server : Check availability

Server -> ZeroMQServer : ACK
ZeroMQServer -> Client : (forward) ACK

Client -> ZeroMQServer : Request Service
ZeroMQServer -> Server : (forward) Request Service

Server -> Server : Process Task
Server -> ZeroMQServer : Return Service
ZeroMQServer -> Client : (forward) Return Service

Client -> ZeroMQServer : Client Close
deactivate Client
ZeroMQServer -> Server : (forward) Client Close
@enduml

PlantUML version 1.2020.02(Sun Mar 01 11:22:07 CET 2020)
(GPL source distribution)
Java Runtime: OpenJDK Runtime Environment
JVM: OpenJDK 64-Bit Server VM
Java Version: 21.0.7+6-Ubuntu-0ubuntu124.04
Operating System: Linux
Default Encoding: UTF-8
Language: en
Country: null
--></g></svg>